<?xml version="1.0" encoding="UTF-8"?>
<svg version="1.1" xmlns="http://www.w3.org/2000/svg" width="820" height="560">
<path d="M0 0 C270.6 0 541.2 0 820 0 C820 184.8 820 369.6 820 560 C549.4 560 278.8 560 0 560 C0 375.2 0 190.4 0 0 Z " fill="#F5F5F5" transform="translate(0,0)"/>
<path d="M0 0 C0.80824219 0.13148437 1.61648438 0.26296875 2.44921875 0.3984375 C18.20205552 3.01905729 34.17994919 13.87396614 46 24 C46.81082031 24.66515625 47.62164063 25.3303125 48.45703125 26.015625 C70.98247824 45.17112323 82.23261605 72.05309583 85 101 C86.90135663 133.45178121 75.7918141 162.07104117 54.4375 186.25 C53.29650962 187.50442217 52.15264286 188.75627637 51 190 C54.17935135 192.55528769 57.59326387 194.58888328 61.09130859 196.66601562 C74.68306632 204.75601086 86.55682871 214.09771716 98 225 C98.65613281 225.61488281 99.31226563 226.22976563 99.98828125 226.86328125 C109.52610384 236.05028737 116.92556297 246.88520562 124 258 C124.6290625 258.97582031 125.258125 259.95164062 125.90625 260.95703125 C131.35661894 269.81388078 135.23629968 279.33516385 139 289 C139.25555664 289.65371582 139.51111328 290.30743164 139.77441406 290.98095703 C145.882898 306.9488229 149.2551045 324.90264646 149.0625 342 C149.05798828 342.77472656 149.05347656 343.54945313 149.04882812 344.34765625 C149.03719758 346.23180524 149.01926906 348.11591365 149 350 C148.34271471 349.95042208 147.68542942 349.90084415 147.00822639 349.84976387 C138.98948461 349.83315797 134.88933067 352.82521372 129.34443665 358.30027771 C128.299265 359.36488733 127.25461976 360.43001395 126.21044922 361.49560547 C125.07951041 362.61297624 123.9464592 363.72821235 122.81147766 364.84147644 C119.74928272 367.85825426 116.71936417 370.90560301 113.69575262 373.96099234 C110.52017774 377.16197437 107.32017285 380.33838528 104.12405396 383.51882935 C98.76185089 388.86286491 93.42101811 394.22757982 88.09179688 399.60449219 C81.93960991 405.81109815 75.75222328 411.98085454 69.54532039 418.13270462 C64.20685216 423.42571891 58.88821162 428.73806566 53.58550465 434.06690705 C50.42288265 437.24507923 47.25398818 440.41620467 44.0670433 443.57000351 C41.07099797 446.53705153 38.10067959 449.52771009 35.14804649 452.53794289 C34.06384825 453.63530637 32.97115621 454.72435577 31.86933708 455.80402565 C30.35914996 457.2866393 28.88346605 458.79708997 27.41207886 460.31808472 C26.57923811 461.15469572 25.74639736 461.99130672 24.88831902 462.85326958 C22.1081397 466.96936436 22.1081397 466.96936436 22 477 C-94.49 477 -210.98 477 -331 477 C-331 458.46070642 -331 458.46070642 -329.75 451.5625 C-329.61360107 450.77157959 -329.47720215 449.98065918 -329.33666992 449.16577148 C-328.91192782 446.77274728 -328.46072262 444.3863326 -328 442 C-327.79914795 440.92298828 -327.79914795 440.92298828 -327.59423828 439.82421875 C-319.39719873 396.98102538 -291.80844765 357.45163446 -256.19726562 332.74951172 C-248.73037798 327.69826313 -240.99819307 323.16232497 -233 319 C-235.95667385 314.92780451 -238.95073349 311.00441033 -242.375 307.3125 C-250.98686675 297.54353221 -256.12354283 285.91437103 -261 274 C-261.54333984 272.74316406 -261.54333984 272.74316406 -262.09765625 271.4609375 C-263.22345785 268.39056951 -263.89369734 265.32544832 -264.5625 262.125 C-264.81128906 260.95195312 -265.06007813 259.77890625 -265.31640625 258.5703125 C-268.71131473 240.83919047 -268.38153797 222.27907815 -263 205 C-262.78569336 204.31115723 -262.57138672 203.62231445 -262.35058594 202.91259766 C-255.43537433 181.46738904 -241.70827227 160.13884818 -222.7265625 147.484375 C-220.85091411 146.03520973 -220.85091411 146.03520973 -219.64311123 143.6741209 C-217.9776021 140.96354799 -216.22763407 138.97605892 -213.98365784 136.72969055 C-213.16914154 135.90953461 -212.35462524 135.08937866 -211.51542664 134.24436951 C-210.62547501 133.35846634 -209.73552338 132.47256317 -208.81860352 131.55981445 C-207.8685836 130.60708236 -206.91898922 129.65392578 -205.9697876 128.70037842 C-203.39799478 126.11948757 -200.81993945 123.54493954 -198.24042249 120.97177148 C-195.53935756 118.27577845 -192.84318524 115.5748996 -190.14622498 112.87480164 C-185.61792072 108.34286183 -181.08542258 103.81514856 -176.55053711 99.28979492 C-171.30888769 94.05903582 -166.07449095 88.82110188 -160.84379059 83.57939559 C-156.34972148 79.07624973 -151.85176555 74.57701411 -147.35053962 70.08102196 C-144.66335906 67.39695811 -141.97754496 64.71156438 -139.29522896 62.02263832 C-136.77415172 59.49578241 -134.24822948 56.9738719 -131.7184906 54.45568848 C-130.34903389 53.09013581 -128.98449404 51.71965779 -127.62010193 50.3490448 C-126.80276581 49.53734833 -125.98542969 48.72565186 -125.14332581 47.88935852 C-124.43559808 47.18238484 -123.72787035 46.47541117 -122.99869633 45.74701405 C-121.06222191 44.05438672 -119.29791833 43.10917549 -117 42 C-115.49834178 40.32624786 -114.06667996 38.58853104 -112.6875 36.8125 C-95.27373145 15.12265258 -69.05660367 0.41992637 -41.26049805 -2.8059082 C-27.24876004 -4.00898972 -13.66216174 -3.20890632 0 0 Z " fill="#020202" transform="translate(501,43)"/>
<path d="M0 0 C0.80824219 0.13148437 1.61648438 0.26296875 2.44921875 0.3984375 C18.20205552 3.01905729 34.17994919 13.87396614 46 24 C46.81082031 24.66515625 47.62164063 25.3303125 48.45703125 26.015625 C70.98247824 45.17112323 82.23261605 72.05309583 85 101 C86.90135663 133.45178121 75.7918141 162.07104117 54.4375 186.25 C53.29650962 187.50442217 52.15264286 188.75627637 51 190 C54.17935135 192.55528769 57.59326387 194.58888328 61.09130859 196.66601562 C74.68306632 204.75601086 86.55682871 214.09771716 98 225 C98.65613281 225.61488281 99.31226563 226.22976563 99.98828125 226.86328125 C109.52610384 236.05028737 116.92556297 246.88520562 124 258 C124.6290625 258.97582031 125.258125 259.95164062 125.90625 260.95703125 C131.35661894 269.81388078 135.23629968 279.33516385 139 289 C139.25555664 289.65371582 139.51111328 290.30743164 139.77441406 290.98095703 C145.882898 306.9488229 149.2551045 324.90264646 149.0625 342 C149.05798828 342.77472656 149.05347656 343.54945313 149.04882812 344.34765625 C149.03719758 346.23180524 149.01926906 348.11591365 149 350 C148.34271471 349.95042208 147.68542942 349.90084415 147.00822639 349.84976387 C138.98948461 349.83315797 134.88933067 352.82521372 129.34443665 358.30027771 C128.299265 359.36488733 127.25461976 360.43001395 126.21044922 361.49560547 C125.07951041 362.61297624 123.9464592 363.72821235 122.81147766 364.84147644 C119.74928272 367.85825426 116.71936417 370.90560301 113.69575262 373.96099234 C110.52017774 377.16197437 107.32017285 380.33838528 104.12405396 383.51882935 C98.76185089 388.86286491 93.42101811 394.22757982 88.09179688 399.60449219 C81.93960991 405.81109815 75.75222328 411.98085454 69.54532039 418.13270462 C64.20685216 423.42571891 58.88821162 428.73806566 53.58550465 434.06690705 C50.42288265 437.24507923 47.25398818 440.41620467 44.0670433 443.57000351 C41.07099797 446.53705153 38.10067959 449.52771009 35.14804649 452.53794289 C34.06384825 453.63530637 32.97115621 454.72435577 31.86933708 455.80402565 C24.67812863 462.81041067 24.67812863 462.81041067 21.84402466 472.23684692 C21.8473144 473.82541225 21.88051635 475.4159311 22 477 C21.67 477 21.34 477 21 477 C20.84180786 475.45844238 20.84180786 475.45844238 20.68041992 473.88574219 C20.28093637 470.01565776 19.86997439 466.14685887 19.45581055 462.27832031 C19.27925094 460.61457939 19.10566654 458.95051959 18.93530273 457.28613281 C16.58762331 434.40142191 10.18423482 413.16269 -1 393 C-1.52980469 392.04335449 -1.52980469 392.04335449 -2.0703125 391.06738281 C-9.52609347 377.78509676 -18.54849666 366.08719406 -29 355 C-29.64839844 354.28714844 -30.29679688 353.57429688 -30.96484375 352.83984375 C-41.59056168 341.60228025 -54.69333996 332.74173757 -68 325 C-69.93867732 323.83529076 -71.87627686 322.66878455 -73.8125 321.5 C-75.20786678 320.66588568 -76.60350443 319.83222309 -78 319 C-75.04332615 314.92780451 -72.04926651 311.00441033 -68.625 307.3125 C-49.68640189 285.82928849 -42.51308408 256.03191657 -43.76171875 228.0625 C-46.06265526 198.48980777 -60.05153451 171.74958799 -82.26171875 152.2734375 C-98.10399191 139.12050886 -116.73587662 130.56186492 -137 127 C-138.58941406 126.71962891 -138.58941406 126.71962891 -140.2109375 126.43359375 C-145.23516281 125.85865663 -150.19703423 125.81579398 -155.25 125.8125 C-156.70986328 125.79413086 -156.70986328 125.79413086 -158.19921875 125.77539062 C-178.48063511 125.7349894 -199.19046054 132.2662615 -215.890625 143.6796875 C-218 145 -218 145 -220 145 C-218.53946092 141.63943922 -216.68574591 139.43452734 -214.10391235 136.84994507 C-213.29077072 136.03116379 -212.47762909 135.21238251 -211.6398468 134.36878967 C-210.29952644 133.03454201 -210.29952644 133.03454201 -208.93212891 131.67333984 C-207.98225588 130.72075586 -207.03280866 129.76774712 -206.08375549 128.81434631 C-203.50777932 126.2292563 -200.92552123 123.65052819 -198.34181643 121.07316542 C-195.63807972 118.37449388 -192.93922804 115.67094414 -190.23959351 112.96817017 C-185.7053142 108.43025273 -181.16683531 103.89656743 -176.62597656 99.36523438 C-171.37696657 94.12710863 -166.13520043 88.8818168 -160.89713919 83.63274419 C-156.39884423 79.12537201 -151.89666176 74.62191074 -147.39120996 70.1216923 C-144.70066075 67.43426039 -142.01147931 64.74549726 -139.32579422 62.05320358 C-136.80062661 59.52225685 -134.27061305 56.9962563 -131.73678398 54.47398186 C-130.36493222 53.10603424 -128.99799748 51.73316114 -127.63121033 50.3601532 C-126.81242905 49.54701157 -125.99364777 48.73386993 -125.15005493 47.89608765 C-124.44102839 47.18781515 -123.73200184 46.47954266 -123.00148964 45.74980736 C-121.0636964 44.05568674 -119.29969107 43.10976399 -117 42 C-115.49834178 40.32624786 -114.06667996 38.58853104 -112.6875 36.8125 C-95.27373145 15.12265258 -69.05660367 0.41992637 -41.26049805 -2.8059082 C-27.24876004 -4.00898972 -13.66216174 -3.20890632 0 0 Z " fill="#F4F4F4" transform="translate(501,43)"/>
<path d="M0 0 C0.80824219 0.13148437 1.61648438 0.26296875 2.44921875 0.3984375 C18.20205552 3.01905729 34.17994919 13.87396614 46 24 C46.81082031 24.66515625 47.62164063 25.3303125 48.45703125 26.015625 C70.98247824 45.17112323 82.23261605 72.05309583 85 101 C86.90135663 133.45178121 75.7918141 162.07104117 54.4375 186.25 C53.29650962 187.50442217 52.15264286 188.75627637 51 190 C54.17935135 192.55528769 57.59326387 194.58888328 61.09130859 196.66601562 C74.68306632 204.75601086 86.55682871 214.09771716 98 225 C98.65613281 225.61488281 99.31226563 226.22976563 99.98828125 226.86328125 C109.52610384 236.05028737 116.92556297 246.88520562 124 258 C124.6290625 258.97582031 125.258125 259.95164062 125.90625 260.95703125 C131.35661894 269.81388078 135.23629968 279.33516385 139 289 C139.25555664 289.65371582 139.51111328 290.30743164 139.77441406 290.98095703 C143.98836649 301.99642794 146.11803946 313.39376407 148 325 C148.20109375 326.19753906 148.4021875 327.39507812 148.609375 328.62890625 C149.12372361 332.8330867 149.04346236 337.04510056 149.02441406 341.27319336 C149.02265167 342.01659721 149.02088928 342.76000107 149.01907349 343.52593231 C149.01449354 345.35062687 149.00748828 347.17531506 149 349 C130.77163675 349.25728795 112.54374646 349.45109431 94.31395817 349.56993389 C85.84890507 349.62658753 77.38498193 349.70378171 68.9206543 349.82983398 C61.54057607 349.93968677 54.16131625 350.0104891 46.78044313 350.03497344 C42.87399622 350.04928112 38.96988992 350.08274491 35.06419563 350.16303062 C31.38212319 350.23810127 27.70333772 350.26065366 24.02057266 350.24418449 C22.03589501 350.24862102 20.05157025 350.3076208 18.06782532 350.36862183 C12.75253848 350.30157457 9.37178675 350.20192488 5.27692986 346.61411476 C2.99832033 343.83480992 1.00430124 340.97992428 -1 338 C-3.46242454 335.26933167 -6.06185954 332.69818287 -8.6875 330.125 C-9.31205078 329.50109375 -9.93660156 328.8771875 -10.58007812 328.234375 C-13.44487234 325.39652242 -16.33482785 322.67096864 -19.45703125 320.1171875 C-20.29621094 319.41851562 -21.13539063 318.71984375 -22 318 C-22 317.67 -22 317.34 -22 317 C22.55 317 67.1 317 113 317 C108.70909592 301.67579887 108.70909592 301.67579887 102.75 287.1875 C102.37141846 286.4138208 101.99283691 285.6401416 101.6027832 284.84301758 C84.86766396 251.52694088 55.8324195 227.04527876 21.24121094 213.65185547 C18.1448127 212.75126905 16.05405831 213.02825417 13 214 C12.01 214.309375 11.02 214.61875 10 214.9375 C9.01 215.288125 8.02 215.63875 7 216 C0.18271258 218.41445596 -5.82151939 219.12376691 -13 219 C-13.18175781 217.98421875 -13.36351562 216.9684375 -13.55078125 215.921875 C-14.93211115 208.32039155 -16.44078956 200.82270547 -18.44921875 193.35546875 C-19 191 -19 191 -19 188 C-17.6875 187.70833333 -16.375 187.41666667 -15.0625 187.125 C-14.22976563 186.93421875 -13.39703125 186.7434375 -12.5390625 186.546875 C-11.02210732 186.22014619 -9.49649033 185.92669208 -7.9609375 185.703125 C9.81427697 182.82065779 27.26605396 169.40873411 37.625 155.25 C50.45841101 135.97071664 55.15446014 114.31411425 50.8125 91.5 C45.56512485 70.65693776 34.04529871 53.7250854 16 42 C-3.60012236 30.67846813 -25.60919454 26.53732673 -47.72631836 32.02099609 C-59.19787868 35.22292164 -70.1960573 40.95730046 -79 49 C-79.83015625 49.75023437 -80.6603125 50.50046875 -81.515625 51.2734375 C-96.00962107 65.0297152 -102.33674115 81.80021393 -106 101 C-114.36988698 100.08167384 -114.36988698 100.08167384 -118.1875 98.5625 C-123.12018314 96.79466776 -128.09820654 96.12023913 -133.27734375 95.4296875 C-136 95 -136 95 -138 94 C-135.06856127 72.93992699 -127.60660632 52.86781931 -113 37 C-112.31679688 36.18917969 -111.63359375 35.37835938 -110.9296875 34.54296875 C-83.462649 2.4980905 -40.62924092 -9.54281103 0 0 Z " fill="#030303" transform="translate(501,43)"/>
<path d="M0 0 C23.58183383 7.83202723 48.70207936 7.18517364 72.1640625 -0.75390625 C83.29886041 -4.36077645 92.22050591 1.30478419 102.19140625 6.36132812 C134.17610604 23.04029054 160.96894034 52.0877759 172.16796875 86.7421875 C175.625 98.00458386 175.625 98.00458386 175.625 102.125 C83.225 102.125 -9.175 102.125 -104.375 102.125 C-103.03761161 94.10066968 -101.98836372 88.02592575 -98.8125 80.875 C-98.46243896 80.06925537 -98.11237793 79.26351074 -97.75170898 78.43334961 C-81.06150329 40.85361007 -51.26679165 13.00684578 -13.1796875 -2.16015625 C-8.33494904 -3.39495728 -4.57090424 -1.65167128 0 0 Z " fill="#F2F2F2" transform="translate(310.375,385.875)"/>
<path d="M0 0 C1.14597656 0.30679688 2.29195313 0.61359375 3.47265625 0.9296875 C25.18577419 7.44137747 42.08916367 21.47547439 52.8515625 41.43359375 C62.16373601 60.90658713 64.36370837 83.35855878 57.31591797 104.00390625 C53.67526172 113.90010661 48.74564674 121.88024003 42 130 C41.51015625 130.65226563 41.0203125 131.30453125 40.515625 131.9765625 C29.22183696 146.52561885 8.90649125 155.69649506 -9 158 C-33.53956367 159.44051306 -54.32527569 153.50764829 -73.33203125 137.4765625 C-87.73122893 124.11039657 -97.98166089 104.72610938 -99.12060547 84.90063477 C-100.02598061 60.23318005 -92.92387694 39.25584873 -76 21 C-66.0502035 11.35041288 -53.60543284 3.30808513 -40 0 C-39.22269531 -0.20238281 -38.44539063 -0.40476563 -37.64453125 -0.61328125 C-25.64798879 -3.28119614 -11.86969307 -3.19892437 0 0 Z " fill="#F5F5F5" transform="translate(365,202)"/>
<path d="M0 0 C0.99 0.495 0.99 0.495 2 1 C0.57746585 4.21806357 -1.1456654 6.42063785 -3.59428406 8.93572998 C-4.71442398 10.09250999 -4.71442398 10.09250999 -5.85719299 11.2726593 C-6.67735397 12.1091954 -7.49751495 12.94573151 -8.3425293 13.80761719 C-9.63818817 15.13985573 -9.63818817 15.13985573 -10.96002197 16.49900818 C-13.82440582 19.43858902 -16.69710958 22.36975942 -19.57421875 25.296875 C-20.31004382 26.04551048 -20.31004382 26.04551048 -21.06073403 26.80926991 C-25.69398024 31.52099235 -30.3326986 36.227284 -34.98186016 40.92330551 C-40.91299704 46.91519321 -46.81804468 52.93046272 -52.69047803 58.9799087 C-56.82995009 63.2398403 -60.99809738 67.47036413 -65.18801433 71.68068242 C-67.68567556 74.19211011 -70.16919495 76.71445011 -72.62235069 79.26943207 C-89.55116282 96.8702529 -89.55116282 96.8702529 -97.80774403 97.33377457 C-100.63255716 97.19637943 -103.2754381 96.74761573 -106 96 C-101.34283364 90.42949482 -96.41236366 85.21206543 -91.32348633 80.03540039 C-90.47221161 79.16631042 -89.62093689 78.29722046 -88.74386597 77.40179443 C-80.94279634 69.44713158 -73.10941803 61.52417531 -65.26466846 53.61260319 C-59.47730295 47.77491269 -53.70858316 41.91997769 -47.96241361 36.04172713 C-43.90578414 31.89504714 -39.82821232 27.76969451 -35.73488444 23.65924066 C-33.29628249 21.20920153 -30.86791969 18.75073027 -28.46207619 16.2684803 C-25.77931701 13.50142016 -23.05383624 10.77898884 -20.32348633 8.05883789 C-19.5402449 7.23761948 -18.75700348 6.41640106 -17.95002747 5.57029724 C-12.27358132 0.01835448 -7.89105349 -1.32215404 0 0 Z " fill="#F5F5F5" transform="translate(332,391)"/>
<path d="M0 0 C0.84747299 0.21793716 1.69494598 0.43587433 2.56809998 0.66041565 C-2.02821131 6.1451299 -6.86761704 11.31790638 -11.86134338 16.44142151 C-12.68668579 17.29100433 -13.5120282 18.14058716 -14.36238098 19.01591492 C-21.93437811 26.79824164 -29.54832721 34.53943806 -37.17768002 42.26550961 C-42.29347042 47.44764688 -47.39403958 52.64312768 -52.45948792 57.87452698 C-56.89748386 62.457898 -61.36155872 67.01388692 -65.85872751 71.5392409 C-68.2314671 73.92857773 -70.58978434 76.32884225 -72.91729546 78.76232719 C-88.99961097 95.49031577 -88.99961097 95.49031577 -97.17094517 95.92790318 C-100.00861153 95.79724252 -102.68335325 95.36723521 -105.43190002 94.66041565 C-100.83558874 89.1757014 -95.99618301 84.00292492 -91.00245667 78.87940979 C-89.76444305 77.60503555 -89.76444305 77.60503555 -88.50141907 76.30491638 C-80.92942194 68.52258966 -73.31547284 60.78139324 -65.68612003 53.05532169 C-60.57032963 47.87318442 -55.46976046 42.67770361 -50.40431213 37.44630432 C-45.96631619 32.8629333 -41.50224133 28.30694438 -37.00507253 23.7815904 C-34.63233295 21.39225357 -32.27401571 18.99198905 -29.94650459 16.5585041 C-12.36114425 -1.73287358 -12.36114425 -1.73287358 0 0 Z " fill="#F5F5F5" transform="translate(351.43190002441406,392.33958435058594)"/>
<path d="M0 0 C0.99 0.495 0.99 0.495 2 1 C3.14433914 5.44895098 3.45782841 9.6121039 2 14 C-2.20038233 20.83185196 -8.51669659 26.32175682 -14.203125 31.89453125 C-15.88029293 33.57792287 -17.55545477 35.26331532 -19.22869873 36.9506073 C-22.73573613 40.47226586 -26.26484199 43.96969923 -29.81152344 47.45141602 C-34.34714404 51.90733754 -38.8244669 56.41698893 -43.28691483 60.94604969 C-46.73449413 64.43318011 -50.21043946 67.89087472 -53.69564056 71.34036827 C-55.35801373 72.99225237 -57.01172939 74.65289803 -58.65634918 76.32245827 C-60.96334927 78.65535105 -63.30561699 80.94597467 -65.66113281 83.22973633 C-66.32864563 83.91996887 -66.99615845 84.61020142 -67.68389893 85.3213501 C-71.8174418 89.2325602 -74.64450446 90.43417002 -80.3961792 90.54814148 C-85.64783409 90.35216591 -85.64783409 90.35216591 -88 88 C-58.96 58.96 -29.92 29.92 0 0 Z " fill="#F5F5F5" transform="translate(423,269)"/>
<path d="M0 0 C-4.19529182 5.00619949 -8.56871152 9.70815221 -13.19873047 14.31225586 C-14.23879997 15.3525444 -14.23879997 15.3525444 -15.29988098 16.41384888 C-17.56995171 18.6832284 -19.8435333 20.94905495 -22.1171875 23.21484375 C-23.70066839 24.79645764 -25.28392721 26.37829389 -26.86697388 27.96034241 C-31.01740092 32.10696645 -35.1708232 36.25057751 -39.32489014 40.39355469 C-43.5699796 44.62838222 -47.8122105 48.8660712 -52.0546875 53.10351562 C-60.36700662 61.40513655 -68.68249489 69.70357522 -77 78 C-77.99 77.67 -78.98 77.34 -80 77 C-81.85285458 72.92371993 -82.43561647 70.24075654 -81 66 C-79.22652356 63.59169652 -77.1617372 61.50222496 -75.06591797 59.3737793 C-74.13623703 58.40708061 -74.13623703 58.40708061 -73.18777466 57.42085266 C-71.13423254 55.29362369 -69.06508713 53.18258059 -66.9921875 51.07421875 C-65.92942282 49.98887313 -65.92942282 49.98887313 -64.84518814 48.88160133 C-61.09196833 45.05085178 -57.3262042 41.23293963 -53.55029297 37.42456055 C-49.66505438 33.50070674 -45.82612375 29.53464263 -41.99615288 25.5569334 C-39.0322213 22.49560439 -36.0350821 19.46844964 -33.02823257 16.44931984 C-31.59869285 15.00221321 -30.18173801 13.54255476 -28.7783165 12.0701046 C-19.62527969 2.49641276 -13.66796881 -2.51630858 0 0 Z " fill="#F5F5F5" transform="translate(594,393)"/>
<path d="M0 0 C-4.69796559 5.67600536 -9.7622998 10.81652013 -15.05053711 15.94189453 C-16.89390322 17.73898878 -18.73698408 19.53637565 -20.57981873 21.33401489 C-21.06092193 21.80257503 -21.54202513 22.27113516 -22.03770721 22.75389409 C-25.57821416 26.20261402 -29.10716343 29.66285703 -32.62953186 33.13009644 C-33.14308965 33.63560945 -33.65664744 34.14112246 -34.18576759 34.66195405 C-36.29981177 36.74338691 -38.4134348 38.82524669 -40.52673709 40.90743279 C-46.50748065 46.79941064 -52.49907356 52.67927492 -58.52563477 58.52441406 C-63.3287806 63.18311206 -68.10648855 67.86626848 -72.85611159 72.57954299 C-75.36518789 75.06758573 -77.88506578 77.54177253 -80.43629265 79.98663712 C-83.28117232 82.7135846 -86.06935187 85.49447519 -88.85522461 88.28173828 C-89.70031082 89.07491959 -90.54539703 89.86810089 -91.41609192 90.68531799 C-94.88324429 94.23414365 -96.87766805 96.43608575 -97.27346992 101.49608994 C-97.036619 104.73085038 -96.64140238 107.82264795 -96 111 C-95.43254468 110.42793571 -94.86508936 109.85587143 -94.28043842 109.26647186 C-80.48172355 95.35740757 -66.66924459 81.46215112 -52.84125233 67.58219147 C-46.15450897 60.86965006 -39.47253055 54.15249025 -32.80151367 47.42431641 C-26.98806074 41.56107785 -21.16591628 35.70663692 -15.3331005 29.86265802 C-12.24402825 26.76705889 -9.15953126 23.66718811 -6.08539772 20.55674744 C-3.19303466 17.63050173 -0.28921267 14.71614424 2.62390137 11.81056023 C3.6921059 10.7409777 4.75601737 9.66708809 5.8153019 8.58867073 C7.2605118 7.11864404 8.72026476 5.66478882 10.18473816 4.21398926 C11.40565297 2.986161 11.40565297 2.986161 12.65123272 1.73352814 C15.36661913 -0.27058644 16.70261673 -0.39491946 20 0 C14.83262818 6.28105081 9.1313277 11.93607904 3.32885742 17.62597656 C2.25541795 18.68273571 1.1822859 19.73980719 0.10943604 20.79716492 C-2.18943741 23.06253983 -4.48948616 25.3267126 -6.79017067 27.59024811 C-10.43113068 31.17443174 -14.063231 34.76750262 -17.69303894 38.36297607 C-18.30736261 38.97145866 -18.92168627 39.57994124 -19.55462581 40.20686269 C-22.08474576 42.7132101 -24.61460897 45.21981659 -27.14445269 47.72644281 C-34.31100836 54.82630283 -41.4856944 61.91751508 -48.68432617 68.98486328 C-54.41674245 74.6128571 -60.13117873 80.25842393 -65.8253414 85.92512679 C-68.83446334 88.91839309 -71.85184293 91.90209247 -74.89130592 94.86457062 C-77.74905251 97.65030017 -80.58230941 100.4587911 -83.39889526 103.28611183 C-84.43305666 104.31594404 -85.47575208 105.33729182 -86.52762413 106.34902763 C-91.62339076 111.2593282 -95.43460048 114.93861982 -96.12651062 122.19647217 C-96.13061773 123.79819807 -96.10604264 125.40178297 -96 127 C-96.33 127 -96.66 127 -97 127 C-97.43046104 122.8194143 -97.85760419 118.63850659 -98.28173828 114.45727539 C-98.42634448 113.03628491 -98.57184104 111.61538474 -98.71826172 110.19458008 C-98.92912811 108.14688097 -99.13674139 106.09887351 -99.34375 104.05078125 C-99.46943359 102.82012939 -99.59511719 101.58947754 -99.72460938 100.3215332 C-99.95657666 97.52373627 -100.05585531 94.8044021 -100 92 C-99.01 92 -98.02 92 -97 92 C-95.10135916 90.53467888 -95.10135916 90.53467888 -93.1802063 88.50732422 C-92.40920593 87.73322205 -91.63820557 86.95911987 -90.84384155 86.16156006 C-90.00221466 85.30129211 -89.16058777 84.44102417 -88.29345703 83.5546875 C-86.92771224 82.17728685 -85.56196512 80.7998885 -84.19613051 79.4225769 C-82.72715842 77.93844333 -81.26192353 76.45070569 -79.79761124 74.9619751 C-76.746985 71.8613181 -73.68394641 68.77312949 -70.61862183 65.68701172 C-62.45403379 57.46318971 -54.30546541 49.22355605 -46.16566837 40.97519875 C-40.81955472 35.55787593 -35.46639385 30.1477392 -30.09946334 24.75103188 C-27.0503107 21.68379742 -24.01297392 18.60545923 -20.9838984 15.5184021 C-18.65438004 13.15072885 -16.30863504 10.79934182 -13.96533203 8.4453125 C-12.70896439 7.15491058 -12.70896439 7.15491058 -11.42721558 5.83843994 C-10.65057556 5.06433777 -9.87393555 4.2902356 -9.07376099 3.49267578 C-8.40382677 2.81423615 -7.73389256 2.13579651 -7.0436573 1.4367981 C-4.52543778 -0.33364209 -3.01376237 -0.29299184 0 0 Z " fill="#EBEBEB" transform="translate(619,393)"/>
<path d="M0 0 C2.70542837 1.21197861 4.29506911 2.77698439 6.23060608 4.99926758 C4.55928668 9.2555442 1.40420082 12.20195538 -1.72520447 15.42016602 C-2.33538422 16.05473221 -2.94556396 16.6892984 -3.57423401 17.34309387 C-9.95860421 23.96469488 -16.41064348 30.52101064 -22.86729431 37.07202148 C-25.92433792 40.17805514 -28.95927176 43.30344459 -31.97666931 46.44799805 C-35.62856679 50.25340497 -39.31643122 54.02024118 -43.03228188 57.76319122 C-44.43702201 59.19049932 -45.82887242 60.63062041 -47.20683861 62.08379364 C-59.12769755 74.62127514 -59.12769755 74.62127514 -67.19330311 74.94920731 C-70.09661873 74.85008198 -72.91260439 74.5167433 -75.76939392 73.99926758 C-71.70987516 69.14148407 -67.47093325 64.53556173 -63.01719666 60.03833008 C-62.37086273 59.38221237 -61.72452881 58.72609467 -61.05860901 58.0500946 C-58.94319355 55.90503736 -56.82376838 53.76401995 -54.70298767 51.62426758 C-53.97554918 50.89025726 -53.24811069 50.15624695 -52.49862862 49.3999939 C-48.65786247 45.52679523 -44.81314021 41.65756571 -40.96592712 37.79077148 C-37.78321113 34.59014842 -34.6092555 31.38119891 -31.44248962 28.16479492 C-27.6102928 24.27262158 -23.76377345 20.39517706 -19.90634346 16.52801514 C-18.43996391 15.05305584 -16.97873994 13.57295261 -15.52277946 12.08770752 C-13.4929894 10.01925862 -11.44533829 7.97028328 -9.39219666 5.92504883 C-8.79309982 5.30595139 -8.19400299 4.68685394 -7.57675171 4.04899597 C-3.45575835 -0.00091394 -3.45575835 -0.00091394 0 0 Z " fill="#F5F5F5" transform="translate(441.76939392089844,413.000732421875)"/>
<path d="M0 0 C2.93446886 1.41791563 5.43332409 2.98332607 8 5 C7.5096874 9.22405198 4.91198277 11.5922202 2.07568359 14.50292969 C1.56318558 15.03996017 1.05068756 15.57699066 0.5226593 16.1302948 C-1.17608333 17.90343492 -2.88700077 19.66403234 -4.6015625 21.421875 C-5.1887141 22.02499763 -5.77586571 22.62812027 -6.38080978 23.24951935 C-9.49403592 26.44288877 -12.61818227 29.62516138 -15.75 32.80029297 C-18.33012814 35.42035388 -20.88675823 38.06035605 -23.42480469 40.72119141 C-26.49831122 43.94336731 -29.60770804 47.12644276 -32.7457695 50.28574371 C-33.92990006 51.48990697 -35.10131758 52.70672137 -36.25883865 53.93648529 C-46.26023357 64.52515666 -46.26023357 64.52515666 -54.27869225 64.80231094 C-57.21677105 64.7180596 -60.0940341 64.43261192 -63 64 C-59.20301491 59.46479694 -55.28288646 55.13986003 -51.08642578 50.97290039 C-50.5295961 50.41592468 -49.97276642 49.85894897 -49.39906311 49.28509521 C-47.58351 47.47023101 -45.76445606 45.65892089 -43.9453125 43.84765625 C-42.67571469 42.57992626 -41.40633952 41.31197327 -40.13717651 40.04380798 C-36.81532426 36.72575224 -33.49047867 33.41071211 -30.16497803 30.09631348 C-26.76440491 26.70601645 -23.36670263 23.31284494 -19.96875 19.91992188 C-13.31528981 13.27714838 -6.65866041 6.63756054 0 0 Z " fill="#F5F5F5" transform="translate(449,423)"/>
<path d="M0 0 C2.93446886 1.41791563 5.43332409 2.98332607 8 5 C7.5096874 9.22405198 4.91198277 11.5922202 2.07568359 14.50292969 C1.56318558 15.03996017 1.05068756 15.57699066 0.5226593 16.1302948 C-1.17608333 17.90343492 -2.88700077 19.66403234 -4.6015625 21.421875 C-5.1887141 22.02499763 -5.77586571 22.62812027 -6.38080978 23.24951935 C-9.49403592 26.44288877 -12.61818227 29.62516138 -15.75 32.80029297 C-18.33012814 35.42035388 -20.88675823 38.06035605 -23.42480469 40.72119141 C-26.49831122 43.94336731 -29.60770804 47.12644276 -32.7457695 50.28574371 C-33.92990006 51.48990697 -35.10131758 52.70672137 -36.25883865 53.93648529 C-46.26023357 64.52515666 -46.26023357 64.52515666 -54.27869225 64.80231094 C-57.21677105 64.7180596 -60.0940341 64.43261192 -63 64 C-59.20301491 59.46479694 -55.28288646 55.13986003 -51.08642578 50.97290039 C-50.5295961 50.41592468 -49.97276642 49.85894897 -49.39906311 49.28509521 C-47.58351 47.47023101 -45.76445606 45.65892089 -43.9453125 43.84765625 C-42.67571469 42.57992626 -41.40633952 41.31197327 -40.13717651 40.04380798 C-36.81532426 36.72575224 -33.49047867 33.41071211 -30.16497803 30.09631348 C-26.76440491 26.70601645 -23.36670263 23.31284494 -19.96875 19.91992188 C-13.31528981 13.27714838 -6.65866041 6.63756054 0 0 Z " fill="#F5F5F5" transform="translate(577,295)"/>
<path d="M0 0 C-5.80138692 7.10512006 -12.34389677 13.4701862 -18.8359375 19.93359375 C-20.0831151 21.17890345 -21.33007001 22.42443621 -22.57681274 23.67018127 C-25.83948105 26.92905366 -29.10514251 30.18491018 -32.37145996 33.44012451 C-35.71171062 36.77009779 -39.04908931 40.10294673 -42.38671875 43.43554688 C-48.92168893 49.95983139 -55.45982831 56.48092996 -62 63 C-62.99 62.67 -63.98 62.34 -65 62 C-65.94921875 59.93359375 -65.94921875 59.93359375 -66.6875 57.4375 C-66.93886719 56.61121094 -67.19023437 55.78492188 -67.44921875 54.93359375 C-67.72185547 53.97646484 -67.72185547 53.97646484 -68 53 C-61.3939632 46.04506673 -54.74718065 39.13244342 -48.04615688 32.2689743 C-44.93510535 29.0799191 -41.83940944 25.87859718 -38.77563477 22.64404297 C-35.81330133 19.51766355 -32.81483996 16.43036491 -29.78880501 13.36564636 C-28.64604583 12.19535526 -27.51647836 11.01201858 -26.40133476 9.81538391 C-18.11972101 0.95399143 -12.19794187 -1.7616985 0 0 Z " fill="#F5F5F5" transform="translate(574,393)"/>
<path d="M0 0 C-0.6521196 0.5467614 -0.6521196 0.5467614 -1.31741333 1.10456848 C-7.96588325 6.7918132 -14.12093929 12.95699064 -20.3046875 19.13671875 C-21.47666423 20.30547607 -22.64871344 21.47416071 -23.8208313 22.64277649 C-26.26155579 25.07755012 -28.70024246 27.51434393 -31.13769531 29.95239258 C-34.25970983 33.07450933 -37.38858609 36.18965221 -40.51920891 39.30313396 C-42.93496282 41.70777828 -45.34616716 44.11694477 -47.75610733 46.52741432 C-48.90833345 47.67846189 -50.06217804 48.82789173 -51.21767807 49.97565269 C-52.82812955 51.5763109 -54.4321269 53.18317548 -56.03466797 54.79174805 C-56.94763641 55.70329147 -57.86060486 56.6148349 -58.80123901 57.55400085 C-60.71246254 59.68013058 -61.92095959 61.38013152 -63 64 C-62.80073775 55.81213296 -60.50571835 49.34576951 -57 42 C-56.57847656 41.08089844 -56.15695312 40.16179687 -55.72265625 39.21484375 C-51.77850412 31.26937787 -46.20170352 25.21041378 -40 19 C-39.2678125 18.25621094 -38.535625 17.51242188 -37.78125 16.74609375 C-29.36053987 8.71814062 -12.1774978 -3.53618928 0 0 Z " fill="#EFEFEF" transform="translate(459,75)"/>
<path d="M0 0 C3.70217779 6.17029632 3.15764603 13.66051308 3.125 20.625 C3.12886719 21.45773437 3.13273437 22.29046875 3.13671875 23.1484375 C3.13022094 27.22905986 3.02346367 31.01986352 2 35 C1.01 33.02 1.01 33.02 0 31 C-22.11 53.11 -44.22 75.22 -67 98 C-64.03 98.495 -64.03 98.495 -61 99 C-61 99.33 -61 99.66 -61 100 C-74.18560521 102.6542452 -88.12561553 101.58095462 -101 98 C-98.51107546 97.23417707 -96.74220242 97.01599767 -94.10978413 97.17935276 C-90.37464323 96.96393336 -89.4768389 96.22975779 -86.86845398 93.63035583 C-86.10437729 92.88319809 -85.3403006 92.13604034 -84.55307007 91.36624146 C-83.7346463 90.5356723 -82.91622253 89.70510315 -82.07299805 88.84936523 C-80.75736122 87.54949928 -80.75736122 87.54949928 -79.41514587 86.22337341 C-77.01548619 83.84559513 -74.6301098 81.455093 -72.25094962 79.05690265 C-69.75666604 76.54741446 -67.24776007 74.0526147 -64.74116516 71.55543518 C-60.53330066 67.3584846 -56.33823948 63.14904709 -52.15014648 58.93237305 C-47.31247226 54.06206666 -42.45358996 49.21372483 -37.58308381 44.3762688 C-33.39863235 40.21907631 -29.22602634 36.05026566 -25.06303245 31.87158543 C-22.57815559 29.37736863 -20.08943691 26.88734874 -17.58997154 24.40774345 C-14.80263842 21.64101632 -12.04032338 18.85011278 -9.2800293 16.05639648 C-8.45148438 15.23999695 -7.62293945 14.42359741 -6.76928711 13.5824585 C-2.41594849 9.13091174 0.03791442 6.35590475 0 0 Z M0 10 C-29.04 39.04 -58.08 68.08 -88 98 C-85.38741151 100.61258849 -84.04269079 100.41206491 -80.3961792 100.54814148 C-73.43720518 100.41024696 -70.37005108 98.09892917 -65.66113281 93.22973633 C-64.91810913 92.50934677 -64.17508545 91.78895721 -63.4095459 91.04673767 C-60.97634387 88.67116893 -58.58948683 86.25458196 -56.203125 83.83203125 C-54.5180108 82.1575496 -52.8311947 80.48477907 -51.14276123 78.81364441 C-47.61651609 75.30956455 -44.11305959 71.78452666 -40.62402344 68.2434082 C-36.16014754 63.71677685 -31.64241102 59.24876717 -27.10576248 54.79521656 C-23.61290194 51.35333984 -20.151487 47.88114301 -16.69857025 44.39923668 C-15.04490766 42.73943762 -13.38147901 41.0893074 -11.70810699 39.44938087 C-2.25189553 31.02819019 -2.25189553 31.02819019 2.99377441 19.99887085 C3.01048089 16.80494206 2.79358141 14.08527839 2 11 C1.01 10.505 1.01 10.505 0 10 Z " fill="#E7E7E7" transform="translate(423,259)"/>
<path d="M0 0 C0.85223145 0.2168042 1.70446289 0.4336084 2.58251953 0.65698242 C-2.35745308 6.61816539 -7.70277909 12.07184544 -13.19091797 17.52807617 C-14.11466217 18.45040543 -15.03840637 19.37273468 -15.99014282 20.32301331 C-18.42423478 22.75332056 -20.86131644 25.18060738 -23.29907227 27.60723877 C-25.79481157 30.09267606 -28.28765755 32.58101174 -30.78076172 35.0690918 C-35.65686907 39.93453338 -40.53614678 44.79678441 -45.41748047 49.65698242 C-48.41748047 48.65698242 -48.41748047 48.65698242 -50.16748047 46.40698242 C-51.66132853 43.12051668 -51.45466248 42.05340923 -50.41748047 38.65698242 C-48.95553589 36.61308289 -48.95553589 36.61308289 -47.05371094 34.60107422 C-46.34141327 33.8406633 -45.6291156 33.08025238 -44.89523315 32.29679871 C-43.72675339 31.08870293 -43.72675339 31.08870293 -42.53466797 29.85620117 C-41.72820831 29.0198262 -40.92174866 28.18345123 -40.09085083 27.32173157 C-38.37680872 25.55676578 -36.65656809 23.79780175 -34.93066406 22.04443359 C-32.31610069 19.36865566 -29.75677745 16.64670875 -27.19482422 13.9206543 C-12.10098948 -1.68243463 -12.10098948 -1.68243463 0 0 Z " fill="#F5F5F5" transform="translate(551.41748046875,392.343017578125)"/>
<path d="M0 0 C-1.5597899 3.74184754 -3.86732173 6.10902778 -6.72509766 8.95214844 C-7.20331467 9.4306575 -7.68153168 9.90916656 -8.17424011 10.4021759 C-9.74948483 11.97603195 -11.33168535 13.54269293 -12.9140625 15.109375 C-14.01023213 16.20181286 -15.10595981 17.29469434 -16.20126343 18.38800049 C-19.08039888 21.25951242 -21.96549056 24.12496654 -24.85186768 26.98919678 C-27.79809815 29.91494126 -30.73865069 32.84638014 -33.6796875 35.77734375 C-39.44758588 41.52381482 -45.22178964 47.26389806 -51 53 C-53.28387571 48.43224858 -51.36611885 41.95225565 -49.94744873 37.24615479 C-47.14161826 30.59425973 -41.33230037 25.59705934 -36.18823242 20.71313477 C-34.05752964 18.68276369 -31.99228828 16.59933606 -29.92773438 14.50195312 C-22.53018421 7.16767605 -16.74210847 2.13129901 -6 1 C-4 0 -4 0 0 0 Z " fill="#F5F5F5" transform="translate(506,260)"/>
<path d="M0 0 C1.32 0.66 2.64 1.32 4 2 C-0.88004707 7.88108952 -6.14095639 13.27653796 -11.55371094 18.66723633 C-12.50721884 19.62046161 -13.46050551 20.57390822 -14.41358948 21.52755737 C-16.9833671 24.09762014 -19.55620121 26.66460273 -22.12962246 29.2310164 C-24.82774122 31.92285087 -27.52299675 34.61754923 -30.21856689 37.31193542 C-35.31741956 42.40768835 -40.41881385 47.50088884 -45.52114224 52.59316128 C-51.32506632 58.38589477 -57.12614062 64.18147854 -62.92697859 69.97730219 C-74.36699652 81.40731373 -85.81023537 92.83409459 -97.25577927 104.25857258 C-98.50438678 105.50518049 -99.75239189 106.75239189 -101 108 C-102.32 106.68 -103.64 105.36 -105 104 C-104.53634033 103.60721076 -104.07268066 103.21442152 -103.5949707 102.80972958 C-97.86801471 97.88659716 -92.51502662 92.65036097 -87.1875 87.30102539 C-86.23088224 86.3441249 -85.27404292 85.38744585 -84.31700134 84.43096924 C-81.74300024 81.85725275 -79.1720743 79.28048482 -76.60172653 76.70312047 C-73.90629561 74.00139966 -71.20799536 71.30254753 -68.51000977 68.6033783 C-63.41190605 63.50217778 -58.31635483 58.39843561 -53.22173595 53.29375499 C-47.41712244 47.47792883 -41.60963826 41.66497278 -35.80192184 35.85224545 C-23.86477099 23.90466763 -11.93119551 11.95352495 0 0 Z " fill="#EDEDED" transform="translate(554,273)"/>
<path d="M0 0 C2 1.375 2 1.375 4 3 C4 3.66 4 4.32 4 5 C2.61377621 6.36733532 2.61377621 6.36733532 0.64671326 7.9863739 C-4.61745242 12.4674961 -9.46753437 17.32704236 -14.34741211 22.21801758 C-15.36152914 23.23077668 -16.37585814 24.24332356 -17.39038086 25.25567627 C-20.12155452 27.98232563 -22.84959757 30.71208652 -25.57691646 33.44259095 C-28.43767798 36.30589792 -31.30089399 39.16674887 -34.16371155 42.02799988 C-38.96258328 46.82505804 -43.75935502 51.62420845 -48.55493164 56.42456055 C-54.10177131 61.97685991 -59.65222933 67.52552259 -65.20454401 73.07234651 C-69.97849591 77.84176629 -74.75050381 82.61312456 -79.52087981 87.38612098 C-82.36742273 90.23422373 -85.21463909 93.08164443 -88.06361198 95.92731667 C-90.73596537 98.59678929 -93.40587572 101.26868117 -96.07389069 103.94248962 C-97.05465134 104.92457596 -98.03627032 105.90580596 -99.01879311 106.88612938 C-100.35593435 108.22055216 -101.6897146 109.5583403 -103.02330017 110.89631653 C-103.77154525 111.64493863 -104.51979033 112.39356073 -105.2907095 113.16486835 C-107.06708182 114.89885714 -107.06708182 114.89885714 -108 117 C-111.875 115.25 -111.875 115.25 -113 113 C-112.27104397 112.59580589 -111.54208794 112.19161179 -110.79104233 111.77516937 C-107.91596133 109.9465494 -105.75116906 108.00281795 -103.34332275 105.59729004 C-102.43758011 104.69718704 -101.53183746 103.79708405 -100.59864807 102.8697052 C-99.60765671 101.87482579 -98.61676968 100.87984246 -97.62597656 99.88476562 C-96.57310136 98.83460208 -95.5198015 97.78486415 -94.46611023 96.73551941 C-91.61256669 93.89107896 -88.76536807 91.04036615 -85.91954899 88.1882 C-82.94014479 85.20372773 -79.95585887 82.22414333 -76.97235107 79.24377441 C-71.96543089 74.24049038 -66.96273736 69.23300924 -61.96240234 64.22314453 C-56.17835907 58.42820551 -50.38712994 52.64052272 -44.59213853 46.85653353 C-39.61682973 41.8902934 -34.64541993 36.92017549 -29.67726302 31.94678068 C-26.70986437 28.97626156 -23.74112513 26.00711614 -20.76886749 23.04145813 C-17.97691161 20.25526937 -15.18987428 17.46425309 -12.40659523 14.66939735 C-11.38317098 13.64332364 -10.35803176 12.61895725 -9.3310833 11.59641075 C-7.93235525 10.20312774 -6.54035686 8.80309836 -5.14874268 7.40270996 C-4.36710377 6.620317 -3.58546486 5.83792404 -2.78013992 5.0318222 C-0.79505676 3.03069753 -0.79505676 3.03069753 0 0 Z " fill="#EAEAEA" transform="translate(402,223)"/>
<path d="M0 0 C3 1 3 1 4.75 3.25 C6.29463429 6.64819544 6.22808951 7.49560938 5 11 C3.0902479 13.62099402 0.89134709 15.9319746 -1.3515625 18.26953125 C-2.00264984 18.95053391 -2.65373718 19.63153656 -3.32455444 20.33317566 C-4.70904841 21.76855604 -6.09973577 23.19798462 -7.49609375 24.62182617 C-9.60414508 26.79104 -11.65584135 29.00533267 -13.7109375 31.22460938 C-24.74215584 42.7169063 -24.74215584 42.7169063 -32.48422241 43.03312683 C-35.37358205 42.91423764 -38.16459985 42.55955785 -41 42 C-36.5021065 36.60809603 -31.73873458 31.60608316 -26.7578125 26.66015625 C-25.98944061 25.89319931 -25.22106873 25.12624237 -24.42941284 24.33604431 C-21.99696491 21.9091526 -19.56104678 19.48577873 -17.125 17.0625 C-15.46591448 15.40843514 -13.80705798 13.75414055 -12.1484375 12.09960938 C-8.10160291 8.06374567 -4.05192047 4.03075723 0 0 Z " fill="#F5F5F5" transform="translate(467,445)"/>
<path d="M0 0 C3 1 3 1 4.75 3.25 C6.29463429 6.64819544 6.22808951 7.49560938 5 11 C3.0902479 13.62099402 0.89134709 15.9319746 -1.3515625 18.26953125 C-2.00264984 18.95053391 -2.65373718 19.63153656 -3.32455444 20.33317566 C-4.70904841 21.76855604 -6.09973577 23.19798462 -7.49609375 24.62182617 C-9.60414508 26.79104 -11.65584135 29.00533267 -13.7109375 31.22460938 C-24.74215584 42.7169063 -24.74215584 42.7169063 -32.48422241 43.03312683 C-35.37358205 42.91423764 -38.16459985 42.55955785 -41 42 C-36.5021065 36.60809603 -31.73873458 31.60608316 -26.7578125 26.66015625 C-25.98944061 25.89319931 -25.22106873 25.12624237 -24.42941284 24.33604431 C-21.99696491 21.9091526 -19.56104678 19.48577873 -17.125 17.0625 C-15.46591448 15.40843514 -13.80705798 13.75414055 -12.1484375 12.09960938 C-8.10160291 8.06374567 -4.05192047 4.03075723 0 0 Z " fill="#F5F5F5" transform="translate(595,317)"/>
<path d="M0 0 C1.32 0.66 2.64 1.32 4 2 C-33.66666667 39.66666667 -71.33333333 77.33333333 -109 115 C-109.66 113.68 -110.32 112.36 -111 111 C-74.37 74.37 -37.74 37.74 0 0 Z " fill="#EBEBEB" transform="translate(392,215)"/>
<path d="M0 0 C0.33 0 0.66 0 1 0 C1.02917228 3.22914752 1.04685663 6.45826083 1.0625 9.6875 C1.07087891 10.59951172 1.07925781 11.51152344 1.08789062 12.45117188 C1.09111328 13.33740234 1.09433594 14.22363281 1.09765625 15.13671875 C1.10289307 15.94842529 1.10812988 16.76013184 1.11352539 17.59643555 C0.9929791 20.14864673 0.559949 22.51026137 0 25 C-0.33 25 -0.66 25 -1 25 C-1.33 23.35 -1.66 21.7 -2 20 C-24.11 42.11 -46.22 64.22 -69 87 C-67.35 87.33 -65.7 87.66 -64 88 C-64 88.33 -64 88.66 -64 89 C-66.31 89 -68.62 89 -71 89 C-70.67 90.65 -70.34 92.3 -70 94 C-71.485 93.01 -71.485 93.01 -73 92 C-76.13101086 95.00702176 -79.24495917 98.03043451 -82.34448242 101.06982422 C-83.40021794 102.10048097 -84.46040627 103.12659762 -85.52514648 104.14794922 C-87.05877993 105.62063884 -88.57542631 107.10914989 -90.08984375 108.6015625 C-91.00628662 109.49182129 -91.92272949 110.38208008 -92.86694336 111.29931641 C-95.23982004 114.30363846 -95.72632457 116.22666973 -96 120 C-96.33 120 -96.66 120 -97 120 C-97.66 116.37 -98.32 112.74 -99 109 C-97.02 108.01 -97.02 108.01 -95 107 C-93.60928934 105.8079498 -92.26529779 104.56043399 -90.95710754 103.27836609 C-90.16212357 102.50347336 -89.36713959 101.72858063 -88.54806519 100.9302063 C-87.68504791 100.07885101 -86.82203064 99.22749573 -85.93286133 98.3503418 C-85.01704788 97.45409592 -84.10123444 96.55785004 -83.15766907 95.63444519 C-80.12458534 92.66399389 -77.10246121 89.6825288 -74.08203125 86.69921875 C-73.30957081 85.93665028 -73.30957081 85.93665028 -72.52150512 85.15867639 C-67.66007201 80.35880432 -62.80272133 75.55483675 -57.95505238 70.74106121 C-51.7676919 64.59747586 -45.56115264 58.47481497 -39.32641774 52.37930173 C-34.93668445 48.08427635 -30.57038265 43.76628851 -26.22050494 39.43090755 C-23.62551748 36.8458 -21.02154014 34.27165232 -18.39188576 31.72177696 C-15.45374545 28.87161991 -12.565558 25.97534047 -9.67895508 23.07299805 C-8.80986511 22.2439093 -7.94077515 21.41482056 -7.04534912 20.56060791 C-1.41843999 14.79500647 -0.01839384 10.55123749 0.08636951 2.48962116 C0.05786757 1.66804618 0.02936563 0.8464712 0 0 Z " fill="#E7E7E7" transform="translate(553,142)"/>
<path d="M0 0 C1.32 1.32 2.64 2.64 4 4 C-33 41 -70 78 -107 115 C-108.32 113.68 -109.64 112.36 -111 111 C-110.26947796 110.59423988 -109.53895592 110.18847977 -108.78629684 109.77042389 C-105.94135831 107.96273884 -103.80072777 106.05235804 -101.41925049 103.67321777 C-100.53033615 102.78994308 -99.64142181 101.9066684 -98.72557068 100.99662781 C-97.75346969 100.02063879 -96.78147303 99.04454584 -95.80957031 98.06835938 C-94.77639923 97.03790005 -93.74280353 96.00786631 -92.70881653 94.97822571 C-89.90899058 92.18750179 -87.11550898 89.3905075 -84.32340717 86.59205818 C-81.40005764 83.66364008 -78.47182588 80.74011047 -75.54437256 77.8157959 C-70.63160925 72.90666858 -65.7230725 67.99334481 -60.81689453 63.07763672 C-55.14191428 57.39176052 -49.45974854 51.71314152 -43.77382016 46.03821516 C-38.89192869 41.16539257 -34.01393667 36.28869214 -29.13919711 31.40871477 C-26.22768963 28.49408696 -23.31484222 25.58083284 -20.39847565 22.67106628 C-17.65904894 19.93740701 -14.92454225 17.19892049 -12.19379234 14.45659447 C-11.1897187 13.44987154 -10.18393035 12.44485554 -9.17633247 11.44165993 C-7.80387847 10.07465165 -6.43815495 8.70089586 -5.07281494 7.32678223 C-4.30592472 6.55913795 -3.5390345 5.79149368 -2.74890518 5.00058746 C-0.79316815 3.02334852 -0.79316815 3.02334852 0 0 Z " fill="#EAEAEA" transform="translate(411,234)"/>
<path d="M0 0 C1.65 0.66 3.3 1.32 5 2 C-31.33333333 38.33333333 -67.66666667 74.66666667 -104 111 C-104.66 109.35 -105.32 107.7 -106 106 C-105.30423434 105.41026382 -105.30423434 105.41026382 -104.5944128 104.80861378 C-98.87740451 99.8926056 -93.52710261 94.66878939 -88.20336914 89.33276367 C-87.24836452 88.37911724 -86.29314799 87.42568298 -85.33773804 86.47244263 C-82.76771777 83.90694324 -80.20082455 81.33833711 -77.6346581 78.7689836 C-74.94206063 76.07383914 -72.24700698 73.3811525 -69.55235291 70.68806458 C-65.03595206 66.17347675 -60.52165022 61.65679814 -56.00854492 57.13891602 C-50.78889504 51.91380537 -45.56562582 46.69233353 -40.34050089 41.47269839 C-35.84680129 36.98353112 -31.35504611 32.4924253 -26.86492246 27.99968129 C-24.18605338 25.31925264 -21.50651173 22.6395057 -18.82521248 19.9615078 C-16.31044761 17.44962403 -13.79812716 14.93532111 -11.28770065 12.41910172 C-9.92390122 11.0533432 -8.55763019 9.69005414 -7.19129944 8.326828 C-5.98231995 7.11361877 -5.98231995 7.11361877 -4.74891663 5.87590027 C-4.04491761 5.17152423 -3.3409186 4.46714819 -2.61558628 3.74142742 C-0.92358775 2.08089916 -0.92358775 2.08089916 0 0 Z " fill="#EBEBEB" transform="translate(379,207)"/>
<path d="M0 0 C3.33773709 3.64116773 3.97864902 7.28607242 5 12 C3 11 3 11 1 8 C0.48131662 8.52052696 -0.03736675 9.04105392 -0.57176781 9.57735443 C-13.17634721 22.22604813 -25.7864179 34.86924288 -38.40266991 47.50629425 C-44.50358875 53.61753812 -50.60261543 59.73064849 -56.69726562 65.84814453 C-62.00761015 71.17838547 -67.3214275 76.50513501 -72.63949454 81.82767153 C-75.45683226 84.647623 -78.27236588 87.46932539 -81.08375168 90.29521179 C-83.72728752 92.95227239 -86.37542398 95.60465702 -89.02723885 98.25345421 C-90.00214182 99.22890965 -90.97531837 100.20609391 -91.94667244 101.18508339 C-93.26822843 102.51652041 -94.59649415 103.84128769 -95.92514038 105.16564941 C-96.66810553 105.91045815 -97.41107067 106.65526688 -98.17654991 107.42264557 C-100 109 -100 109 -102 109 C-102.33 107.68 -102.66 106.36 -103 105 C-102.53296126 104.60327937 -102.06592253 104.20655874 -101.5847311 103.79781628 C-95.9789405 98.97202559 -90.71106913 93.86530972 -85.47875977 88.63989258 C-84.56236221 87.72845993 -83.64596466 86.81702728 -82.70179749 85.87797546 C-80.21218761 83.40135444 -77.72580337 80.9215212 -75.24044538 78.44063401 C-73.68567709 76.88881295 -72.13033051 75.33757371 -70.57481194 73.78650475 C-65.70145962 68.92677938 -60.83007731 64.06509227 -55.96159416 59.20048887 C-50.35162932 53.5950208 -44.73515199 47.99618612 -39.11302334 42.40291864 C-34.75600011 38.06748635 -30.4047339 33.72633117 -26.0578236 29.38075942 C-23.46534609 26.78932996 -20.87049462 24.20038887 -18.26962471 21.61738014 C-15.37657469 18.74382036 -12.49554191 15.85849946 -9.61547852 12.97192383 C-8.32126984 11.69153732 -8.32126984 11.69153732 -7.00091553 10.38528442 C-6.22017166 9.59897141 -5.4394278 8.81265839 -4.63502502 8.0025177 C-3.95314904 7.32210828 -3.27127306 6.64169886 -2.56873417 5.94067097 C-0.93202915 3.9159137 -0.39701783 2.54652081 0 0 Z " fill="#EAEAEA" transform="translate(546,118)"/>
<path d="M0 0 C3 3.625 3 3.625 3 7 C1.58150387 8.49726391 1.58150387 8.49726391 -0.41065979 10.10624695 C-5.35186624 14.25133997 -9.87645365 18.73607799 -14.42944336 23.30004883 C-15.33608734 24.20494049 -16.24273132 25.10983215 -17.17684937 26.04214478 C-19.63943393 28.50021098 -22.09889407 30.9613804 -24.55762553 33.42330003 C-27.13811358 36.0063362 -29.72105905 38.58691324 -32.30360413 41.16789246 C-36.63169103 45.49416675 -40.95767967 49.82253075 -45.2824707 54.15209961 C-50.28399404 59.15908449 -55.28913744 64.162429 -60.29613584 69.16393834 C-64.60300058 73.46627061 -68.90792061 77.77054147 -73.21120936 82.07645053 C-75.7782959 84.64509645 -78.34605436 87.21306089 -80.91557121 89.77927589 C-83.77201766 92.63230683 -86.62437438 95.48939215 -89.47631836 98.34692383 C-90.32977341 99.19835464 -91.18322845 100.04978546 -92.06254578 100.92701721 C-92.83487549 101.70216675 -93.6072052 102.47731628 -94.40293884 103.2759552 C-95.07744048 103.95083386 -95.75194212 104.62571253 -96.4468832 105.32104206 C-98.08259673 106.93262743 -98.08259673 106.93262743 -99 109 C-103.75 108.25 -103.75 108.25 -106 106 C-105.26556293 105.75270582 -104.53112587 105.50541164 -103.77443314 105.2506237 C-100.7104644 103.86948682 -98.98118245 102.35846564 -96.60906982 99.99002075 C-95.33880447 98.73244461 -95.33880447 98.73244461 -94.0428772 97.44946289 C-93.12735077 96.52786377 -92.21182434 95.60626465 -91.26855469 94.65673828 C-90.28485054 93.67710125 -89.30050975 92.69810314 -88.31558228 91.71969604 C-85.64769047 89.06546509 -82.98935666 86.40185088 -80.33305264 83.73602915 C-77.55133494 80.94671067 -74.76229891 78.1647254 -71.97442627 75.38156128 C-67.29524754 70.70783796 -62.62242448 66.02783007 -57.953125 61.34423828 C-52.55381014 55.92858781 -47.14375971 50.52384251 -41.72802424 45.12461674 C-37.07782877 40.48803083 -32.4334997 35.8456296 -27.79403234 31.19830883 C-25.0232801 28.4228784 -22.2505381 25.64951748 -19.47249603 22.88138199 C-16.86210817 20.2796541 -14.25915707 17.67070843 -11.66178513 15.05598831 C-10.25119043 13.63952919 -8.83319299 12.23045432 -7.41500854 10.82159424 C-6.57944427 9.9775705 -5.74388 9.13354675 -4.88299561 8.26394653 C-4.1529771 7.53279696 -3.4229586 6.80164738 -2.67081833 6.04834175 C-0.97073362 3.96412084 -0.39048308 2.63066506 0 0 Z " fill="#EAEAEA" transform="translate(418,246)"/>
<path d="M0 0 C1.32 0.66 2.64 1.32 4 2 C-31.33333333 37.33333333 -66.66666667 72.66666667 -102 108 C-103.65 106.35 -105.3 104.7 -107 103 C-106.26726773 102.91734674 -105.53453547 102.83469347 -104.77959919 102.74953556 C-101.36870547 101.82976765 -100.00935367 100.50261806 -97.52641296 98.00743103 C-96.22873741 96.71800346 -96.22873741 96.71800346 -94.90484619 95.40252686 C-93.9594078 94.44293316 -93.01416277 93.48314892 -92.0690918 92.52319336 C-91.06430036 91.51727335 -90.05862674 90.51223388 -89.05213928 89.50801086 C-86.32448507 86.78150433 -83.60933976 84.04284075 -80.89626288 81.30183864 C-78.05802354 78.43859475 -75.20845309 75.58667392 -72.36006165 72.73353577 C-66.9689455 67.3299871 -61.58810686 61.91632297 -56.2108801 56.49895626 C-50.08819059 50.33155777 -43.95413951 44.1755131 -37.81910455 38.02039897 C-25.20004666 25.35953049 -12.59533767 12.68446393 0 0 Z " fill="#EBEBEB" transform="translate(520,87)"/>
<path d="M0 0 C2 1.375 2 1.375 4 3 C4 3.66 4 4.32 4 5 C2.5949707 6.38558292 2.5949707 6.38558292 0.61328125 8.01881409 C-4.45300792 12.33125004 -9.11967041 16.98693427 -13.8125 21.69897461 C-14.76911776 22.6558751 -15.72595708 23.61255415 -16.68299866 24.56903076 C-19.25699976 27.14274725 -21.8279257 29.71951518 -24.39827347 32.29687953 C-27.09370439 34.99860034 -29.79200464 37.69745247 -32.48999023 40.3966217 C-37.58809395 45.49782222 -42.68364517 50.60156439 -47.77826405 55.70624501 C-53.58287756 61.52207117 -59.39036174 67.33502722 -65.19807816 73.14775455 C-77.13522901 85.09533237 -89.06880449 97.04647505 -101 109 C-101.99 108.01 -102.98 107.02 -104 106 C-103.47008737 105.47193095 -102.94017473 104.9438619 -102.39420414 104.39979076 C-89.51148434 91.5612045 -76.63427795 78.71711235 -63.76321507 65.86683941 C-57.53878096 59.65272592 -51.31248212 53.4405024 -45.08178711 47.23266602 C-39.65228037 41.82306913 -34.22627671 36.40998744 -28.80448288 30.99265987 C-25.93252191 28.12331035 -23.05881564 25.25575844 -20.18091011 22.39237022 C-17.47376867 19.6987747 -14.77132586 17.00055456 -12.07245636 14.29867172 C-11.07968335 13.30645021 -10.08518729 12.31594935 -9.08887291 11.32728386 C-7.73149459 9.97981957 -6.38082314 8.62560896 -5.03053284 7.27104187 C-3.8925794 6.13585381 -3.8925794 6.13585381 -2.731637 4.97773266 C-0.79135428 3.0191005 -0.79135428 3.0191005 0 0 Z " fill="#EBEBEB" transform="translate(530,95)"/>
<path d="M0 0 C1.32 1.32 2.64 2.64 4 4 C-31 39 -66 74 -101 109 C-101.99 108.34 -102.98 107.68 -104 107 C-104 106.34 -104 105.68 -104 105 C-102.58795834 103.60628891 -102.58795834 103.60628891 -100.60081482 101.96673584 C-95.6168526 97.72453238 -91.01183418 93.15954069 -86.38696289 88.53222656 C-84.99773621 87.1480378 -84.99773621 87.1480378 -83.58044434 85.73588562 C-81.06405841 83.22825471 -78.55084894 80.71746443 -76.03851628 78.20577335 C-74.46711238 76.63508365 -72.89499718 75.0651095 -71.32262993 73.49538422 C-65.83357997 68.01555233 -60.3470849 62.53317764 -54.86303711 57.04833984 C-49.75400014 51.93869976 -44.63938458 46.83469065 -39.52218252 41.73322892 C-35.12017702 37.34428156 -30.7220177 32.95150522 -26.32685655 28.55570388 C-23.70515903 25.93375129 -21.08192894 23.31337813 -18.45482063 20.69684601 C-15.5333804 17.78685063 -12.61997206 14.86894231 -9.70727539 11.95019531 C-8.83511887 11.08365829 -7.96296234 10.21712128 -7.06437683 9.32432556 C-6.27521881 8.53097305 -5.48606079 7.73762054 -4.67298889 6.92022705 C-3.98373857 6.23152149 -3.29448824 5.54281593 -2.58435154 4.83324051 C-0.78307869 2.98434778 -0.78307869 2.98434778 0 0 Z " fill="#EBEBEB" transform="translate(539,106)"/>
<path d="M0 0 C1.65 0.66 3.3 1.32 5 2 C0.15712059 6.85045448 -4.70432702 11.68221279 -9.5637207 16.51611328 C-19.29709887 26.19996013 -29.02238383 35.89190204 -38.74349689 45.58806038 C-44.62646913 51.45552293 -50.51225654 57.32011059 -56.40454102 63.17822266 C-61.55466979 68.29849924 -66.69954613 73.423985 -71.83812207 78.55585659 C-74.55612082 81.26994024 -77.27671015 83.98130885 -80.00362587 86.6864357 C-82.56360875 89.22612148 -85.11653512 91.77268751 -87.66412544 94.3248024 C-89.04982868 95.70928203 -90.44299657 97.08627764 -91.83633423 98.46307373 C-92.65369553 99.28455902 -93.47105682 100.10604431 -94.31318665 100.9524231 C-95.02937825 101.66584932 -95.74556986 102.37927555 -96.48346424 103.11432076 C-98.31335345 104.98631945 -98.31335345 104.98631945 -98 108 C-102.875 106.25 -102.875 106.25 -104 104 C-103.30103938 103.40706886 -103.30103938 103.40706886 -102.58795834 102.80215931 C-96.93977528 97.94333417 -91.64744285 92.78924833 -86.38696289 87.51635742 C-85.46081177 86.59195862 -84.53466064 85.66755981 -83.58044434 84.71514893 C-81.06414191 82.20336615 -78.55096524 79.68847835 -76.03851628 77.17284179 C-73.40197352 74.53375148 -70.76297397 71.89711963 -68.12437439 69.26008606 C-63.70213052 64.839655 -59.28198528 60.41713369 -54.86303711 55.9934082 C-49.7524505 50.87736045 -44.63824419 45.76495226 -39.52218252 40.65438002 C-35.12190036 36.25863025 -30.72356275 31.86094191 -26.32685655 27.46161538 C-23.70387874 24.83707809 -21.08022868 22.21322241 -18.45482063 19.59111595 C-15.53610836 16.67581904 -12.62148523 13.75646758 -9.70727539 10.83666992 C-8.83511887 9.96653763 -7.96296234 9.09640533 -7.06437683 8.1999054 C-6.27521881 7.40792755 -5.48606079 6.61594971 -4.67298889 5.79997253 C-3.98373857 5.11034518 -3.29448824 4.42071783 -2.58435154 3.71019268 C-0.92049165 2.07413918 -0.92049165 2.07413918 0 0 Z " fill="#EBEBEB" transform="translate(541,265)"/>
<path d="M0 0 C1.65 0.66 3.3 1.32 5 2 C0.1546204 6.84790461 -4.69696281 11.68959138 -9.54785156 16.53198242 C-19.26472644 26.23234685 -28.97890338 35.93540943 -38.69168472 45.63987255 C-44.56947254 51.51249049 -50.4482054 57.38415676 -56.32910156 63.25366211 C-61.46927945 68.38388926 -66.60771133 73.51585761 -71.74403358 78.64994508 C-74.46070295 81.36530943 -77.1782497 84.07978258 -79.89789581 86.79216576 C-82.45109227 89.33859657 -85.00195618 91.88734033 -87.55101776 94.43791008 C-88.93630298 95.82278743 -90.32407855 97.20517229 -91.71191406 98.5874939 C-92.53065002 99.40760452 -93.34938599 100.22771515 -94.19293213 101.07267761 C-95.26583685 102.14419964 -95.26583685 102.14419964 -96.36041641 103.23736858 C-98.07439664 104.91401614 -98.07439664 104.91401614 -99 107 C-100.65 106.34 -102.3 105.68 -104 105 C-99.1546204 100.15209539 -94.30303719 95.31040862 -89.45214844 90.46801758 C-79.73527356 80.76765315 -70.02109662 71.06459057 -60.30831528 61.36012745 C-54.43052746 55.48750951 -48.5517946 49.61584324 -42.67089844 43.74633789 C-37.53072055 38.61611074 -32.39228867 33.48414239 -27.25596642 28.35005492 C-24.53929705 25.63469057 -21.8217503 22.92021742 -19.10210419 20.20783424 C-16.54890773 17.66140343 -13.99804382 15.11265967 -11.44898224 12.56208992 C-10.06369702 11.17721257 -8.67592145 9.79482771 -7.28808594 8.4125061 C-6.46934998 7.59239548 -5.65061401 6.77228485 -4.80706787 5.92732239 C-4.09179806 5.21297437 -3.37652824 4.49862635 -2.63958359 3.76263142 C-0.92560336 2.08598386 -0.92560336 2.08598386 0 0 Z " fill="#EBEBEB" transform="translate(507,79)"/>
<path d="M0 0 C5.94 0 11.88 0 18 0 C16.35 1.32 14.7 2.64 13 4 C11.57675475 5.33412481 10.17451607 6.69095054 8.79216003 8.06739807 C7.5828331 9.26815979 7.5828331 9.26815979 6.34907532 10.49317932 C5.47873154 11.36240524 4.60838776 12.23163116 3.71166992 13.12719727 C2.78435059 14.0495517 1.85703125 14.97190613 0.90161133 15.92221069 C-1.63153126 18.44229409 -4.16138543 20.96565267 -6.69023347 23.49004483 C-8.270267 25.06714063 -9.8508828 26.64365059 -11.43167686 28.21998405 C-16.37819819 33.15285529 -21.3227314 38.08770642 -26.26436692 43.02547222 C-31.96889005 48.72550313 -37.6799135 54.41891456 -43.39662057 60.10672528 C-47.81810378 64.50663132 -52.23384367 68.91224702 -56.64522094 73.32228512 C-59.27963013 75.95564458 -61.91643069 78.58650026 -64.55921364 81.21145821 C-67.50067511 84.13346063 -70.43015519 87.06719214 -73.35864258 90.00219727 C-74.23910751 90.87344742 -75.11957245 91.74469757 -76.02671814 92.64234924 C-76.81883698 93.44003723 -77.61095581 94.23772522 -78.42707825 95.05958557 C-79.12114682 95.75218759 -79.8152154 96.4447896 -80.53031635 97.15837955 C-82.31187983 98.99811314 -82.31187983 98.99811314 -82 102 C-85.96 101.01 -89.92 100.02 -94 99 C-90 98 -90 98 -88.00547409 97.67042637 C-85.29205751 96.7633361 -83.92824819 95.29701108 -81.91241455 93.2731781 C-81.10757126 92.4724588 -80.30272797 91.6717395 -79.47349548 90.84675598 C-78.59955643 89.9620311 -77.72561737 89.07730621 -76.82519531 88.16577148 C-75.898022 87.23903625 -74.97084869 86.31230103 -74.01557922 85.35748291 C-71.47401182 82.8167767 -68.94180407 80.26692297 -66.41116047 77.71534228 C-63.7646412 75.05007701 -61.10963133 72.39329753 -58.45550537 69.73561096 C-53.43116108 64.70194012 -48.41451344 59.66067038 -43.40057731 54.61663443 C-37.69188372 48.87441588 -31.97467547 43.14070735 -26.25673151 37.40770233 C-14.49497868 25.61458664 -2.74397979 13.81081534 9 2 C6.03 1.67 3.06 1.34 0 1 C0 0.67 0 0.34 0 0 Z " fill="#E9E9E9" transform="translate(464,72)"/>
<path d="M0 0 C1.65 0.33 3.3 0.66 5 1 C0.1428038 6.85600071 -5.09523241 12.21853437 -10.49365234 17.57543945 C-11.4405705 18.51879453 -12.38724962 19.46238958 -13.33370972 20.40620422 C-15.35881429 22.42479913 -17.38541825 24.44187185 -19.41318893 26.45778847 C-22.61774584 29.64395645 -25.81786892 32.83455296 -29.01724243 36.02592468 C-38.11076623 45.09536344 -47.2102858 54.15877292 -56.31396484 63.21801758 C-61.35192335 68.23146399 -66.38630966 73.24846991 -71.41685832 78.26935166 C-74.59903598 81.44497746 -77.78567229 84.61603948 -80.9756515 87.78382742 C-83.41532769 90.20907172 -85.84851858 92.64078908 -88.28271484 95.0715332 C-89.61508179 96.39075775 -89.61508179 96.39075775 -90.97436523 97.7366333 C-91.77345306 98.5370253 -92.57254089 99.3374173 -93.39584351 100.1620636 C-94.09598761 100.85906529 -94.79613171 101.55606699 -95.51749229 102.27418995 C-97.21720414 103.87366115 -97.21720414 103.87366115 -97 106 C-98.98 105.34 -100.96 104.68 -103 104 C-98.18520752 99.18270599 -93.36425288 94.37158891 -88.54394531 89.55981445 C-78.92685557 79.95923461 -69.31246335 70.35595703 -59.69946671 60.75127888 C-53.882213 54.9391951 -48.06401421 49.12806312 -42.24365234 43.3190918 C-37.15621212 38.24160241 -32.07051802 33.16237176 -26.98693347 28.08102196 C-24.29820976 25.39360324 -21.60860882 22.70707572 -18.91690826 20.02263832 C-16.38997654 17.50247238 -13.86537761 14.97999343 -11.3425808 12.45568848 C-9.97160895 11.08512448 -8.5981468 9.71705296 -7.22462463 8.3490448 C-6.41430283 7.53734833 -5.60398102 6.72565186 -4.769104 5.88935852 C-3.7072608 4.82889801 -3.7072608 4.82889801 -2.62396622 3.74701405 C-0.92404957 2.08260867 -0.92404957 2.08260867 0 0 Z " fill="#EBEBEB" transform="translate(527,259)"/>
<path d="M0 0 C2.32590854 3.63423209 2.16265833 6.77088331 2 11 C1.42481188 11.25014862 0.84962376 11.50029724 0.25700569 11.75802612 C-2.31707752 13.17447984 -4.03733628 14.79137585 -6.11209106 16.87158203 C-6.92245819 17.67919983 -7.73282532 18.48681763 -8.56774902 19.31890869 C-9.44789673 20.20624695 -10.32804443 21.09358521 -11.23486328 22.0078125 C-12.17757933 22.9510929 -13.1207364 23.8939327 -14.06430054 24.83636475 C-16.62233298 27.39382345 -19.17415202 29.95740174 -21.72490549 32.52211761 C-24.39496071 35.20468354 -27.07068855 37.88157905 -29.74581909 40.55908203 C-34.81180523 45.63128458 -39.87267269 50.70856268 -44.93172157 55.78768349 C-50.68373696 61.5620271 -56.4414071 67.33071796 -62.19957376 73.09892654 C-73.56081689 84.48021799 -84.9155905 95.8679382 -96.26581001 107.26022339 C-97.50946665 108.50788642 -98.75433855 109.75433855 -100 111 C-100.99 108.03 -100.99 108.03 -102 105 C-101.26243092 104.58677648 -100.52486183 104.17355295 -99.76494217 103.7478075 C-97.06236479 102.03942276 -95.02374789 100.28291276 -92.76092529 98.03507996 C-91.94773834 97.23186813 -91.13455139 96.42865631 -90.29672241 95.60110474 C-89.41859894 94.72364594 -88.54047546 93.84618713 -87.63574219 92.94213867 C-86.70027557 92.01499557 -85.76480896 91.08785248 -84.80099487 90.13261414 C-82.24261174 87.59611607 -79.69077611 85.05313049 -77.140769 82.50821471 C-75.54654479 80.9176393 -73.95103148 79.32836858 -72.35507965 77.73952675 C-66.78536722 72.19428201 -61.2213748 66.64336378 -55.66210938 61.08764648 C-50.48255209 55.91172872 -45.28999631 50.74910504 -40.09138751 45.5923292 C-35.62468362 41.16031192 -31.16764364 36.71872886 -26.71790051 32.26968366 C-24.06171229 29.6142884 -21.40169699 26.96302202 -18.73171234 24.32149315 C-15.75601975 21.37681249 -12.80062825 18.4125375 -9.84667969 15.44604492 C-8.96045929 14.57465881 -8.07423889 13.70327271 -7.16116333 12.80548096 C-6.35925568 11.99380966 -5.55734802 11.18213837 -4.73114014 10.34587097 C-4.03061901 9.64736117 -3.33009789 8.94885138 -2.60834885 8.22917461 C-0.64295544 5.50513554 -0.32348533 3.30801916 0 0 Z " fill="#EAEAEA" transform="translate(551,131)"/>
<path d="M0 0 C2.31 0.33 4.62 0.66 7 1 C2.1709565 6.81730548 -3.02596909 12.15563215 -8.38598633 17.48364258 C-9.80704677 18.90246172 -11.22810709 20.321281 -12.64916265 21.74010503 C-14.1643013 23.25189042 -15.6806799 24.76242174 -17.19742775 26.27259254 C-20.36402093 29.42559175 -23.52673203 32.58246607 -26.68888855 35.73991394 C-33.39379026 42.43375426 -40.1029369 49.12333253 -46.8125 55.8125 C-54.07438011 63.05234681 -61.33551404 70.29293308 -68.59180278 77.53838462 C-71.73708255 80.67867724 -74.88478524 83.81651486 -78.03435385 86.95250571 C-79.51779944 88.43029982 -81.00010707 89.90922386 -82.48190308 91.38867188 C-84.29049983 93.19438885 -86.10090785 94.99829409 -87.91340637 96.8000946 C-88.70545471 97.59207245 -89.49750305 98.38405029 -90.31355286 99.20002747 C-91.3513248 100.23446849 -91.3513248 100.23446849 -92.41006184 101.28980732 C-94.07970452 102.92484938 -94.07970452 102.92484938 -95 105 C-97.31 104.34 -99.62 103.68 -102 103 C-101.1411577 102.62871696 -101.1411577 102.62871696 -100.26496506 102.24993324 C-97.64004983 100.80135955 -95.87831976 99.12420382 -93.76055908 97.00106812 C-92.92205917 96.16531754 -92.08355927 95.32956696 -91.21965027 94.4684906 C-90.30830826 93.54995804 -89.39696625 92.63142548 -88.45800781 91.68505859 C-87.48249044 90.70897691 -86.50653212 89.73333574 -85.53016663 88.75810242 C-82.88342897 86.1119385 -80.24290245 83.45965413 -77.6034441 80.80623198 C-74.84302927 78.03331342 -72.07694845 75.26605875 -69.3114624 72.49819946 C-64.07663863 67.25715988 -58.84693394 62.01104297 -53.61904693 56.76308501 C-47.66654735 50.7882296 -41.70836677 44.81905321 -35.74970102 38.85034823 C-23.49346622 26.57320914 -11.24438858 14.28895352 1 2 C0.505 1.01 0.505 1.01 0 0 Z " fill="#EBEBEB" transform="translate(490,74)"/>
<path d="M0 0 C3.37462715 0.54723683 5.08235 1.0549 8 3 C7.53083129 3.39811418 7.06166258 3.79622835 6.57827663 4.20640659 C1.02528882 8.98385417 -4.17560957 14.04581978 -9.33764648 19.23999023 C-10.71419429 20.61877926 -12.09074223 21.99756817 -13.46729481 23.37635243 C-14.93025565 24.84266106 -16.39196053 26.31021097 -17.85330009 27.7781353 C-20.90527921 30.84372976 -23.96115266 33.9054227 -27.01759338 36.96656799 C-33.49388051 43.45390362 -39.96589124 49.94549786 -46.4375 56.4375 C-53.4496309 63.47166771 -60.46251034 70.50508005 -67.48024231 77.53366047 C-70.52129328 80.57970293 -73.55988812 83.6281685 -76.59664428 86.67849243 C-78.91851643 89.00953304 -81.24357394 91.33739302 -83.56811523 93.66577148 C-84.8342717 94.93967743 -84.8342717 94.93967743 -86.12600708 96.23931885 C-87.27188042 97.38529793 -87.27188042 97.38529793 -88.44090271 98.5544281 C-89.10803 99.22377601 -89.7751573 99.89312391 -90.46250057 100.58275509 C-92 102 -92 102 -93 102 C-92.88541307 100.56163249 -92.75790884 99.12429034 -92.625 97.6875 C-92.55539063 96.88699219 -92.48578125 96.08648437 -92.4140625 95.26171875 C-92 93 -92 93 -90 90 C-89.67 90.99 -89.34 91.98 -89 93 C-58.97 62.97 -28.94 32.94 2 2 C1.01 1.01 1.01 1.01 0 0 Z " fill="#E9E9E9" transform="translate(300,383)"/>
<path d="M0 0 C-1.76429199 4.97209562 -4.3939166 9.43438061 -7 14 C-7.99 14 -8.98 14 -10 14 C-11.67387837 15.22238813 -11.67387837 15.22238813 -13.31521606 16.94099426 C-13.97419891 17.5929628 -14.63318176 18.24493134 -15.31213379 18.91665649 C-16.02913452 19.64130096 -16.74613525 20.36594543 -17.48486328 21.11254883 C-18.24447357 21.86850845 -19.00408386 22.62446808 -19.78671265 23.40333557 C-22.30538397 25.91387538 -24.81300021 28.4351507 -27.3203125 30.95703125 C-29.06189752 32.69913458 -30.80400014 34.44072061 -32.54660034 36.18180847 C-36.20133983 39.8366378 -39.85084237 43.49659405 -43.49658203 47.16040039 C-48.17698372 51.863481 -52.86836684 56.55541917 -57.56349373 61.24379444 C-61.16344045 64.84040414 -64.75838906 68.44197504 -68.35174179 72.04517174 C-70.0800284 73.77731585 -71.80967559 75.50810349 -73.54068375 77.23752785 C-75.95673884 79.65321328 -78.36620867 82.0752754 -80.77392578 84.49926758 C-81.49497498 85.21783936 -82.21602417 85.93641113 -82.95892334 86.67675781 C-83.61226654 87.33718582 -84.26560974 87.99761383 -84.93875122 88.67805481 C-85.50913179 89.25048825 -86.07951237 89.8229217 -86.6671772 90.41270161 C-88.22967733 92.07590866 -88.22967733 92.07590866 -89 95 C-91.21484375 96.60546875 -91.21484375 96.60546875 -93.9375 98.1875 C-94.83339844 98.71730469 -95.72929687 99.24710937 -96.65234375 99.79296875 C-99 101 -99 101 -101 101 C-99.53759779 97.63303466 -97.67688607 95.42566233 -95.0904541 92.83648682 C-94.27442215 92.01481522 -93.4583902 91.19314362 -92.61763 90.34657288 C-91.27259651 89.00761208 -91.27259651 89.00761208 -89.90039062 87.64160156 C-88.94727252 86.68577259 -87.99458024 85.72951884 -87.0422821 84.77287292 C-84.45817533 82.17965376 -81.8677886 79.5927943 -79.27595329 77.00730228 C-76.5659433 74.30235527 -73.8608157 71.59253269 -71.15490723 68.88348389 C-66.61223529 64.33717443 -62.0653645 59.79509633 -57.51611328 55.25537109 C-52.25115202 50.00130706 -46.99345225 44.74005898 -41.73944139 39.4750464 C-37.23097977 34.95752142 -32.71864809 30.44388987 -28.20303297 25.93351531 C-25.50471975 23.23832536 -22.80778853 20.54178989 -20.11433411 17.84174347 C-17.58423821 15.30588812 -15.04933425 12.77494122 -12.51056862 10.24776649 C-11.13116563 8.87228682 -9.75670673 7.4918546 -8.38237 6.11131287 C-7.56633804 5.30092056 -6.75030609 4.49052826 -5.9095459 3.65557861 C-5.19867577 2.94546253 -4.48780563 2.23534645 -3.75539398 1.5037117 C-2 0 -2 0 0 0 Z " fill="#EAEAEA" transform="translate(382,87)"/>
<path d="M0 0 C2.31 0.33 4.62 0.66 7 1 C2.21647413 6.75628153 -2.91663033 12.05263186 -8.21826172 17.33178711 C-9.58019905 18.69394348 -9.58019905 18.69394348 -10.96965027 20.08361816 C-13.4401235 22.55437636 -15.91365083 25.02205581 -18.38776922 27.48916316 C-20.98005325 30.07516336 -23.56947443 32.66402707 -26.15921021 35.25257874 C-31.0550324 40.14530237 -35.95339636 45.03547296 -40.85269558 49.92471462 C-46.4339174 55.49472932 -52.01227394 61.06760984 -57.59040046 66.64072406 C-69.05709847 78.09699112 -80.52736069 89.54968266 -92 101 C-93.0625 99.1875 -93.0625 99.1875 -94 97 C-93.67 96.01 -93.34 95.02 -93 94 C-92.34 94 -91.68 94 -91 94 C-89.2095026 92.51012631 -89.2095026 92.51012631 -87.26681519 90.50732422 C-86.48996368 89.73322205 -85.71311218 88.95911987 -84.91271973 88.16156006 C-84.05964233 87.30129211 -83.20656494 86.44102417 -82.32763672 85.5546875 C-81.43001617 84.65735901 -80.53239563 83.76003052 -79.60757446 82.83551025 C-77.14046255 80.36897395 -74.67958067 77.89630416 -72.21973562 75.4225235 C-69.65014568 72.84046079 -67.07491952 70.26403227 -64.50027466 67.68701172 C-59.62308943 62.80360153 -54.75102629 57.91511388 -49.88076317 53.02480125 C-44.33699439 47.458705 -38.78756933 41.89826293 -33.23765159 36.3382988 C-21.81877594 24.89849816 -10.40705808 13.45158466 1 2 C0.505 1.01 0.505 1.01 0 0 Z " fill="#EBEBEB" transform="translate(362,202)"/>
<path d="M0 0 C-4.09835616 4.87440387 -8.33817553 9.50920222 -12.82421875 14.02734375 C-13.45229935 14.66112442 -14.08037994 15.29490509 -14.72749329 15.94789124 C-16.04293796 17.27270717 -17.35978342 18.59613361 -18.67797852 19.91821289 C-20.69945236 21.94951045 -22.71002466 23.99122625 -24.72070312 26.03320312 C-26.00455091 27.3235711 -27.28903343 28.61330793 -28.57421875 29.90234375 C-29.17425217 30.51472397 -29.77428558 31.12710419 -30.39250183 31.75804138 C-34.6572747 36 -34.6572747 36 -38 36 C-42.0362826 31.06676571 -42.0362826 31.06676571 -41.93798828 28.17675781 C-39.65888444 22.88771829 -34.6124461 18.68432723 -30.64013672 14.58984375 C-29.47170567 13.37196043 -28.31955659 12.13822587 -27.18505859 10.88867188 C-18.61594194 1.45689247 -12.98254785 -2.08319855 0 0 Z " fill="#F5F5F5" transform="translate(534,393)"/>
<path d="M0 0 C5.94 0 11.88 0 18 0 C16.35 1.32 14.7 2.64 13 4 C11.75930501 5.1555616 10.53770017 6.33199656 9.33711243 7.5291748 C8.65158295 8.2104393 7.96605347 8.8917038 7.25975037 9.59361267 C6.52345901 10.33035721 5.78716766 11.06710175 5.02856445 11.82617188 C4.24100769 12.61037003 3.45345093 13.39456818 2.64202881 14.20252991 C0.04645735 16.78862242 -2.5453446 19.37845206 -5.13671875 21.96875 C-6.94074715 23.76956487 -8.7448508 25.57030437 -10.54902649 27.37097168 C-14.32589206 31.14185448 -18.1007106 34.91477225 -21.87426758 38.68896484 C-26.23398354 43.04928259 -30.59925787 47.40398032 -34.96715134 51.75610495 C-39.17521762 55.94952104 -43.37774654 60.14845562 -47.57819557 64.34950256 C-49.36399927 66.13412456 -51.15142852 67.91712144 -52.94049644 69.69847107 C-55.4373422 72.18554749 -57.9278056 74.67884595 -60.41674805 77.17382812 C-61.15911209 77.91057266 -61.90147614 78.6473172 -62.66633606 79.40638733 C-63.34340607 80.08765182 -64.02047607 80.76891632 -64.71806335 81.4708252 C-65.60153962 82.35348431 -65.60153962 82.35348431 -66.50286388 83.25397491 C-68.31374051 85.22296506 -68.31374051 85.22296506 -70 89 C-70 82.73 -70 76.46 -70 70 C-69.67 70 -69.34 70 -69 70 C-68.67 72.97 -68.34 75.94 -68 79 C-42.59 53.59 -17.18 28.18 9 2 C6.03 1.67 3.06 1.34 0 1 C0 0.67 0 0.34 0 0 Z " fill="#E8E8E8" transform="translate(336,200)"/>
<path d="M0 0 C0.66 0.33 1.32 0.66 2 1 C-3.62619671 7.66798264 -9.69725189 13.86068858 -15.859375 20.02734375 C-16.89600605 21.06719506 -17.9325648 22.10711845 -18.96905518 23.14710999 C-21.12555829 25.30955653 -23.28407269 27.4699719 -25.44384766 29.62915039 C-28.21182899 32.39702929 -30.97281805 35.17177453 -33.73217392 37.94824886 C-35.86313483 40.09030644 -37.99860299 42.22782581 -40.13538361 44.36407661 C-41.15607633 45.38594896 -42.17514887 46.40944231 -43.19255829 47.43458366 C-44.60897908 48.86077521 -46.0323568 50.28004737 -47.45605469 51.69897461 C-48.26322937 52.50757431 -49.07040405 53.31617401 -49.90203857 54.14927673 C-52 56 -52 56 -55 57 C-46.602669 33.93867308 -23.4442195 15.04389226 -3.6328125 2.08203125 C-2.9845752 1.65768799 -2.33633789 1.23334473 -1.66845703 0.79614258 C-1.11786621 0.53341553 -0.56727539 0.27068848 0 0 Z " fill="#E6E6E6" transform="translate(275,394)"/>
<path d="M0 0 C0.66 0.33 1.32 0.66 2 1 C-6.75672325 20.66526927 -19.44942116 35.23823104 -39 45 C-40.98667102 45.70539542 -42.98394948 46.38357096 -45 47 C-43.50469676 43.51027997 -41.50808338 41.26534605 -38.82568359 38.59863281 C-37.96494232 37.7380426 -37.10420105 36.87745239 -36.21737671 35.99078369 C-35.28712677 35.07085632 -34.35687683 34.15092896 -33.3984375 33.203125 C-32.43678914 32.24520903 -31.47558306 31.28684886 -30.51480103 30.32806396 C-27.99076718 27.81164875 -25.46078409 25.30129893 -22.92950439 22.79217529 C-20.3452081 20.22837559 -17.76659801 17.65887082 -15.1875 15.08984375 C-10.13054303 10.05430543 -5.06727744 5.0251544 0 0 Z " fill="#E8E8E8" transform="translate(419,308)"/>
<path d="M0 0 C3 1 3 1 4.1875 2.6875 C5.23181606 5.65978416 5.26423211 7.85805778 5 11 C2.83480825 14.57239819 -0.13031904 17.41443737 -3.0625 20.375 C-3.86929199 21.19339355 -4.67608398 22.01178711 -5.50732422 22.85498047 C-9.93816724 27.03546391 -13.39291113 30.01261357 -19.63061523 30.25244141 C-22.48624121 30.06996659 -25.21820979 29.66467554 -28 29 C-22.61359076 22.44622903 -16.64114873 16.52753365 -10.625 10.5625 C-9.59221405 9.53474017 -8.55966009 8.50674715 -7.52734375 7.47851562 C-5.02089713 4.98298402 -2.5113292 2.49061918 0 0 Z " fill="#F4F4F4" transform="translate(474,458)"/>
<path d="M0 0 C3 1 3 1 4.1875 2.6875 C5.23181606 5.65978416 5.26423211 7.85805778 5 11 C2.83480825 14.57239819 -0.13031904 17.41443737 -3.0625 20.375 C-3.86929199 21.19339355 -4.67608398 22.01178711 -5.50732422 22.85498047 C-9.93816724 27.03546391 -13.39291113 30.01261357 -19.63061523 30.25244141 C-22.48624121 30.06996659 -25.21820979 29.66467554 -28 29 C-22.61359076 22.44622903 -16.64114873 16.52753365 -10.625 10.5625 C-9.59221405 9.53474017 -8.55966009 8.50674715 -7.52734375 7.47851562 C-5.02089713 4.98298402 -2.5113292 2.49061918 0 0 Z " fill="#F4F4F4" transform="translate(602,330)"/>
<path d="M0 0 C0.66 0.33 1.32 0.66 2 1 C-2.27606259 10.41833722 -6.97293591 18.2849716 -14 26 C-14.61359375 26.70640625 -15.2271875 27.4128125 -15.859375 28.140625 C-23.28988789 36.20622446 -33.49812737 42.84943821 -44 46 C-42.51657 42.55323 -40.56949812 40.32656699 -37.91748047 37.69042969 C-36.65639969 36.4295755 -36.65639969 36.4295755 -35.36984253 35.14324951 C-34.46146637 34.24519592 -33.55309021 33.34714233 -32.6171875 32.421875 C-31.68778351 31.4953009 -30.75837952 30.56872681 -29.80081177 29.61407471 C-27.3359615 27.15684211 -24.86516334 24.70567639 -22.39306641 22.2557373 C-19.86909235 19.75226191 -17.35080612 17.24307937 -14.83203125 14.734375 C-9.89356403 9.81732475 -4.948788 4.90666212 0 0 Z " fill="#EAEAEA" transform="translate(547,180)"/>
<path d="M0 0 C-21.45 21.45 -42.9 42.9 -65 65 C-66.57156655 61.8568669 -65.11705576 59.634536 -64.0625 56.375 C-63.68222656 55.18648438 -63.30195313 53.99796875 -62.91015625 52.7734375 C-62.60980469 51.85820312 -62.30945313 50.94296875 -62 50 C-61.67 51.32 -61.34 52.64 -61 54 C-57.56331269 51.32764658 -54.40244051 48.53272952 -51.31738281 45.46264648 C-50.42005432 44.57169785 -49.52272583 43.68074921 -48.59820557 42.76280212 C-47.63297685 41.79910147 -46.66795484 40.83519375 -45.703125 39.87109375 C-44.70382834 38.87501359 -43.70445786 37.87900747 -42.70501709 36.8830719 C-40.61878686 34.80280791 -38.5346121 32.72050914 -36.45166016 30.63696289 C-33.78122095 27.96642162 -31.10394222 25.30285149 -28.4248848 22.64095974 C-26.36259602 20.58977507 -24.30485364 18.53407615 -22.24837494 16.47706795 C-21.26278628 15.49265963 -20.27557498 14.50987313 -19.28672028 13.52874565 C-17.90809565 12.15989836 -16.53639719 10.78408603 -15.16503906 9.40795898 C-14.38292053 8.62726547 -13.600802 7.84657196 -12.79498291 7.04222107 C-10.79535651 5.03403258 -10.79535651 5.03403258 -10 2 C-8.22265625 1.015625 -8.22265625 1.015625 -6.0625 0.25 C-5.35222656 -0.01296875 -4.64195312 -0.2759375 -3.91015625 -0.546875 C-2 -1 -2 -1 0 0 Z " fill="#E7E7E7" transform="translate(516,257)"/>
<path d="M0 0 C-0.6521196 0.5467614 -0.6521196 0.5467614 -1.31741333 1.10456848 C-7.96588325 6.7918132 -14.12093929 12.95699064 -20.3046875 19.13671875 C-21.47666423 20.30547607 -22.64871344 21.47416071 -23.8208313 22.64277649 C-26.26155579 25.07755012 -28.70024246 27.51434393 -31.13769531 29.95239258 C-34.25970983 33.07450933 -37.38858609 36.18965221 -40.51920891 39.30313396 C-42.93496282 41.70777828 -45.34616716 44.11694477 -47.75610733 46.52741432 C-48.90833345 47.67846189 -50.06217804 48.82789173 -51.21767807 49.97565269 C-52.82812955 51.5763109 -54.4321269 53.18317548 -56.03466797 54.79174805 C-56.94763641 55.70329147 -57.86060486 56.6148349 -58.80123901 57.55400085 C-60.71246254 59.68013058 -61.92095959 61.38013152 -63 64 C-62.57910004 58.39538469 -62.08386889 53.27913453 -60 48 C-59.34 48.99 -58.68 49.98 -58 51 C-42.16 35.16 -26.32 19.32 -10 3 C-10.66 2.34 -11.32 1.68 -12 1 C-4.265625 -1.19140625 -4.265625 -1.19140625 0 0 Z " fill="#E8E8E8" transform="translate(459,75)"/>
<path d="M0 0 C-1.60589559 4.0017595 -4.41391613 6.68242989 -7.42773438 9.65478516 C-7.98076736 10.2081102 -8.53380035 10.76143524 -9.10359192 11.33152771 C-10.92894302 13.15548796 -12.76127273 14.97226417 -14.59375 16.7890625 C-15.86449055 18.05607106 -17.13478887 19.32352329 -18.40466309 20.59140015 C-21.74663824 23.92574526 -25.09457374 27.25404278 -28.44378662 30.58111572 C-31.85284544 33.96973375 -35.25626958 37.36400044 -38.66015625 40.7578125 C-44.63866259 46.7171737 -50.6220497 52.67159859 -56.60900879 58.62246704 C-58.07454996 60.07975907 -59.53857758 61.53857758 -61 63 C-60.88541307 61.56163249 -60.75790884 60.12429034 -60.625 58.6875 C-60.55539062 57.88699219 -60.48578125 57.08648437 -60.4140625 56.26171875 C-60 54 -60 54 -58 51 C-57.67 51.66 -57.34 52.32 -57 53 C-40.83 36.83 -24.66 20.66 -8 4 C-8.66 3.34 -9.32 2.68 -10 2 C-6.38026598 0.68373308 -3.90432869 0 0 0 Z " fill="#E7E7E7" transform="translate(329,202)"/>
<path d="M0 0 C-0.66 3.63 -1.32 7.26 -2 11 C-2.66 10.01 -3.32 9.02 -4 8 C-16.21 20.21 -28.42 32.42 -41 45 C-40.67 45.66 -40.34 46.32 -40 47 C-42.97 47.66 -45.94 48.32 -49 49 C-47.12100137 45.24200274 -45.58739252 43.33447968 -42.67382812 40.41503906 C-41.77950073 39.51440735 -40.88517334 38.61377563 -39.96374512 37.68585205 C-38.9865015 36.71218727 -38.00899689 35.73878439 -37.03125 34.765625 C-36.02969576 33.76272319 -35.02843855 32.75952468 -34.02746582 31.75604248 C-31.93251701 29.65814945 -29.83400385 27.56390617 -27.73291016 25.47216797 C-25.03582072 22.78650212 -22.34784814 20.09191822 -19.6624527 17.39456558 C-17.59863217 15.32353264 -15.53008999 13.25726884 -13.46006775 11.19243622 C-12.46659889 10.20030405 -11.47462053 9.20667711 -10.48414612 8.21155548 C-9.10298439 6.8253357 -7.71475049 5.44617301 -6.32617188 4.06738281 C-5.53722534 3.28002747 -4.74827881 2.49267212 -3.9354248 1.68145752 C-2 0 -2 0 0 0 Z " fill="#E8E8E8" transform="translate(366,123)"/>
<path d="M0 0 C0.33 0 0.66 0 1 0 C1 2.64 1 5.28 1 8 C6.94 7.505 6.94 7.505 13 7 C10.08270288 8.94486475 9.06759357 9.24754197 5.77758789 9.70263672 C0.23168397 10.86446756 -2.63609453 13.72703225 -6.44140625 17.7578125 C-7.09455307 18.42086395 -7.74769989 19.08391541 -8.42063904 19.76705933 C-10.48507175 21.8704027 -12.5237041 23.99682761 -14.5625 26.125 C-15.96515659 27.56279993 -17.36943885 28.99901584 -18.77539062 30.43359375 C-22.20266876 33.93768774 -25.60703326 37.46268545 -29 41 C-29.87089614 37.77694607 -30.05399707 35.14305517 -29.87890625 31.796875 C-29.83056641 30.8171875 -29.78222656 29.8375 -29.73242188 28.828125 C-29.67634766 27.81234375 -29.62027344 26.7965625 -29.5625 25.75 C-29.51029297 24.71875 -29.45808594 23.6875 -29.40429688 22.625 C-29.27484366 20.08300961 -29.13988672 17.54143407 -29 15 C-28.67 15 -28.34 15 -28 15 C-27.67 20.94 -27.34 26.88 -27 33 C-23.30069695 29.43874973 -19.61303662 25.87044173 -15.9465332 22.27612305 C-14.69768028 21.05737076 -13.44348555 19.84406665 -12.18383789 18.63647461 C-10.36980745 16.8955501 -8.57614813 15.13567356 -6.78515625 13.37109375 C-6.22159927 12.83850449 -5.6580423 12.30591522 -5.07740784 11.75718689 C-1.36436167 8.0473738 -0.24229831 5.429277 0 0 Z " fill="#E5E5E5" transform="translate(487,254)"/>
<path d="M0 0 C1.75070517 0.11470137 3.50057536 0.24219028 5.25 0.375 C6.71179688 0.47941406 6.71179688 0.47941406 8.203125 0.5859375 C10.92541832 0.98895858 12.6041295 1.72130507 15 3 C14.43039551 2.85498047 13.86079102 2.70996094 13.27392578 2.56054688 C8.41763346 1.88404844 5.83375484 2.38335544 1.83105469 5.34375 C-1.66751354 8.55585124 -4.89455498 12.02213651 -8.125 15.5 C-9.28148779 16.70669945 -10.44032338 17.91115343 -11.6015625 19.11328125 C-14.42885098 22.05025458 -17.22237937 25.01604184 -20 28 C-17.03 28.33 -14.06 28.66 -11 29 C-11 29.33 -11 29.66 -11 30 C-16.28 30 -21.56 30 -27 30 C-21.34422588 23.1159517 -15.00690941 16.95926092 -8.64257812 10.73852539 C-7.21838441 9.34435701 -5.80048678 7.94376596 -4.3828125 6.54296875 C-3.54121582 5.71821045 -2.69961914 4.89345215 -1.83251953 4.04370117 C0.22253087 2.20931887 0.22253087 2.20931887 0 0 Z " fill="#E8E8E8" transform="translate(367,138)"/>
<path d="M0 0 C2.31 0.33 4.62 0.66 7 1 C5.91187012 1.84473877 5.91187012 1.84473877 4.80175781 2.70654297 C2.09969153 4.91839472 -0.35824162 7.22888834 -2.828125 9.6953125 C-3.70984375 10.57574219 -4.5915625 11.45617187 -5.5 12.36328125 C-6.4075 13.27464844 -7.315 14.18601563 -8.25 15.125 C-9.17296875 16.04410156 -10.0959375 16.96320313 -11.046875 17.91015625 C-11.9234375 18.78800781 -12.8 19.66585937 -13.703125 20.5703125 C-14.50395508 21.37227051 -15.30478516 22.17422852 -16.12988281 23.00048828 C-18.0505077 24.86406015 -18.0505077 24.86406015 -19 27 C-18.01 27.33 -17.02 27.66 -16 28 C-19.63 27.67 -23.26 27.34 -27 27 C-26.2790918 26.44135254 -25.55818359 25.88270508 -24.81542969 25.30712891 C-22.03047351 23.02497179 -19.50010016 20.62952186 -16.953125 18.0859375 C-15.56287109 16.69761719 -15.56287109 16.69761719 -14.14453125 15.28125 C-13.66967285 14.80429688 -13.19481445 14.32734375 -12.70556641 13.8359375 C-11.24363822 12.36861474 -9.7763983 10.90675444 -8.30859375 9.4453125 C-7.38691406 8.52234375 -6.46523438 7.599375 -5.515625 6.6484375 C-4.25153809 5.38265869 -4.25153809 5.38265869 -2.96191406 4.09130859 C-0.95875185 2.15566749 -0.95875185 2.15566749 0 0 Z " fill="#E8E8E8" transform="translate(384,142)"/>
<path d="M0 0 C0.99 0.33 1.98 0.66 3 1 C4.1845131 4.55353929 4.26641894 7.27013478 4 11 C2.93359375 12.70703125 2.93359375 12.70703125 1 14 C-2.35546875 14.29296875 -2.35546875 14.29296875 -6.1875 14.1875 C-7.45980469 14.16042969 -8.73210937 14.13335937 -10.04296875 14.10546875 C-11.01878906 14.07066406 -11.99460937 14.03585937 -13 14 C-8.88380164 9.08064098 -4.59589638 4.47352044 0 0 Z " fill="#F3F3F3" transform="translate(480,473)"/>
<path d="M0 0 C0.99 0.33 1.98 0.66 3 1 C4.1845131 4.55353929 4.26641894 7.27013478 4 11 C2.93359375 12.70703125 2.93359375 12.70703125 1 14 C-2.35546875 14.29296875 -2.35546875 14.29296875 -6.1875 14.1875 C-7.45980469 14.16042969 -8.73210938 14.13335937 -10.04296875 14.10546875 C-11.01878906 14.07066406 -11.99460937 14.03585937 -13 14 C-8.88380164 9.08064098 -4.59589638 4.47352044 0 0 Z " fill="#F3F3F3" transform="translate(608,345)"/>
<path d="M0 0 C-5.24458586 6.36590304 -11.02097322 12.13570612 -16.875 17.9375 C-17.85960919 18.91708237 -18.843986 19.89689837 -19.828125 20.87695312 C-22.21648203 23.25360252 -24.60715212 25.62787356 -27 28 C-27.99 27.01 -28.98 26.02 -30 25 C-29.27167969 24.27530518 -28.54335938 23.55061035 -27.79296875 22.80395508 C-25.27188489 20.27295437 -22.78746456 17.71267619 -20.3125 15.13671875 C-18.54200662 13.31998114 -16.7711635 11.50358431 -15 9.6875 C-14.11054688 8.75615234 -13.22109375 7.82480469 -12.3046875 6.86523438 C-11.44101562 5.98544922 -10.57734375 5.10566406 -9.6875 4.19921875 C-8.90761719 3.39315186 -8.12773437 2.58708496 -7.32421875 1.7565918 C-4.62182642 -0.28581501 -3.3071093 -0.39326798 0 0 Z " fill="#EBEBEB" transform="translate(519,393)"/>
<path d="M0 0 C1.32 1.32 2.64 2.64 4 4 C-3.66666667 11.66666667 -11.33333333 19.33333333 -19 27 C-19.99 25.68 -20.98 24.36 -22 23 C-21.57332031 22.64550781 -21.14664062 22.29101562 -20.70703125 21.92578125 C-15.96834463 17.89056975 -11.48577027 13.62457595 -7.0625 9.25 C-6.48282471 8.68321533 -5.90314941 8.11643066 -5.3059082 7.5324707 C-1.9742886 4.21384856 -1.9742886 4.21384856 0 0 Z " fill="#E8E8E8" transform="translate(502,383)"/>
<path d="M0 0 C2.475 1.485 2.475 1.485 5 3 C4.26628174 3.57073242 3.53256348 4.14146484 2.77661133 4.72949219 C0.21899982 6.82091811 -2.09975545 8.9853652 -4.42578125 11.328125 C-5.22177734 12.12734375 -6.01777344 12.9265625 -6.83789062 13.75 C-8.06282227 14.9875 -8.06282227 14.9875 -9.3125 16.25 C-10.56643555 17.51070313 -10.56643555 17.51070313 -11.84570312 18.796875 C-13.89942418 20.8623316 -15.95076637 22.93009274 -18 25 C-19.32 24.34 -20.64 23.68 -22 23 C-19.02432346 20.01846583 -16.03930616 17.04675472 -13.046875 14.08203125 C-11.61453307 12.65890475 -10.18224249 11.23572657 -8.75 9.8125 C-8.0178125 9.08869141 -7.285625 8.36488281 -6.53125 7.61914062 C-5.83515625 6.92626953 -5.1390625 6.23339844 -4.421875 5.51953125 C-3.78862305 4.89151611 -3.15537109 4.26350098 -2.50292969 3.61645508 C-0.91075025 2.05609672 -0.91075025 2.05609672 0 0 Z " fill="#E8E8E8" transform="translate(482,364)"/>
<path d="M0 0 C0.99 0.99 1.98 1.98 3 3 C-4.26 10.26 -11.52 17.52 -19 25 C-19.99 24.01 -20.98 23.02 -22 22 C-14.74 14.74 -7.48 7.48 0 0 Z " fill="#E9E9E9" transform="translate(493,374)"/>
<path d="M0 0 C0.66 0.33 1.32 0.66 2 1 C-3.28 6.28 -8.56 11.56 -14 17 C-14 12.95607032 -12.51908749 11.99868382 -9.8125 9.0625 C-9.03519531 8.20785156 -8.25789063 7.35320312 -7.45703125 6.47265625 C-5.09786332 4.09848566 -2.65532732 2.0327639 0 0 Z " fill="#D4D4D4" transform="translate(297,216)"/>
<path d="M0 0 C0.33 0.99 0.66 1.98 1 3 C0.34 3.66 -0.32 4.32 -1 5 C-1.33 4.01 -1.66 3.02 -2 2 C-1.34 1.34 -0.68 0.68 0 0 Z M-28 28 C-27.67 28.99 -27.34 29.98 -27 31 C-27.99 30.67 -28.98 30.34 -30 30 C-29.34 29.34 -28.68 28.68 -28 28 Z " fill="#F0F0F0" transform="translate(414,318)"/>
<path d="M0 0 C0.33 0 0.66 0 1 0 C1.33 2.64 1.66 5.28 2 8 C0.02 8 -1.96 8 -4 8 C-3.2884375 7.13375 -3.2884375 7.13375 -2.5625 6.25 C-1.0515133 4.07417916 -0.45963849 2.57397552 0 0 Z " fill="#DADADA" transform="translate(484,480)"/>
<path d="M0 0 C0.33 0 0.66 0 1 0 C1.33 2.64 1.66 5.28 2 8 C0.02 8 -1.96 8 -4 8 C-3.2884375 7.13375 -3.2884375 7.13375 -2.5625 6.25 C-1.0515133 4.07417916 -0.45963849 2.57397552 0 0 Z " fill="#DADADA" transform="translate(612,352)"/>
</svg>
